<svg xmlns="http://www.w3.org/2000/svg" viewBox="0 0 800 600" width="800" height="600">
<defs>
  <linearGradient id="bg" x1="0" y1="0" x2="0" y2="1" gradientUnits="objectBoundingBox">
    <stop offset="0%" stop-color="#f5f7fa"/><stop offset="100%" stop-color="#e8ecf2"/>
  </linearGradient>
  <linearGradient id="navy" x1="0" y1="0" x2="0" y2="1" gradientUnits="objectBoundingBox">
    <stop offset="0%" stop-color="#243547"/><stop offset="100%" stop-color="#1a2a3a"/>
  </linearGradient>
</defs>
<rect width="800" height="600" fill="url(#bg)"/>
<rect x="0" y="0" width="800" height="4" fill="#00AEEF"/>
<line x1="0" y1="0" x2="800" y2="0" stroke="rgba(26,42,58,0.03)" stroke-width="1"/><line x1="0" y1="60" x2="800" y2="60" stroke="rgba(26,42,58,0.03)" stroke-width="1"/><line x1="0" y1="120" x2="800" y2="120" stroke="rgba(26,42,58,0.03)" stroke-width="1"/><line x1="0" y1="180" x2="800" y2="180" stroke="rgba(26,42,58,0.03)" stroke-width="1"/><line x1="0" y1="240" x2="800" y2="240" stroke="rgba(26,42,58,0.03)" stroke-width="1"/><line x1="0" y1="300" x2="800" y2="300" stroke="rgba(26,42,58,0.03)" stroke-width="1"/><line x1="0" y1="360" x2="800" y2="360" stroke="rgba(26,42,58,0.03)" stroke-width="1"/><line x1="0" y1="420" x2="800" y2="420" stroke="rgba(26,42,58,0.03)" stroke-width="1"/><line x1="0" y1="480" x2="800" y2="480" stroke="rgba(26,42,58,0.03)" stroke-width="1"/><line x1="0" y1="540" x2="800" y2="540" stroke="rgba(26,42,58,0.03)" stroke-width="1"/><line x1="0" y1="600" x2="800" y2="600" stroke="rgba(26,42,58,0.03)" stroke-width="1"/>
<line x1="0" y1="0" x2="0" y2="600" stroke="rgba(26,42,58,0.03)" stroke-width="1"/><line x1="60" y1="0" x2="60" y2="600" stroke="rgba(26,42,58,0.03)" stroke-width="1"/><line x1="120" y1="0" x2="120" y2="600" stroke="rgba(26,42,58,0.03)" stroke-width="1"/><line x1="180" y1="0" x2="180" y2="600" stroke="rgba(26,42,58,0.03)" stroke-width="1"/><line x1="240" y1="0" x2="240" y2="600" stroke="rgba(26,42,58,0.03)" stroke-width="1"/><line x1="300" y1="0" x2="300" y2="600" stroke="rgba(26,42,58,0.03)" stroke-width="1"/><line x1="360" y1="0" x2="360" y2="600" stroke="rgba(26,42,58,0.03)" stroke-width="1"/><line x1="420" y1="0" x2="420" y2="600" stroke="rgba(26,42,58,0.03)" stroke-width="1"/><line x1="480" y1="0" x2="480" y2="600" stroke="rgba(26,42,58,0.03)" stroke-width="1"/><line x1="540" y1="0" x2="540" y2="600" stroke="rgba(26,42,58,0.03)" stroke-width="1"/><line x1="600" y1="0" x2="600" y2="600" stroke="rgba(26,42,58,0.03)" stroke-width="1"/><line x1="660" y1="0" x2="660" y2="600" stroke="rgba(26,42,58,0.03)" stroke-width="1"/><line x1="720" y1="0" x2="720" y2="600" stroke="rgba(26,42,58,0.03)" stroke-width="1"/><line x1="780" y1="0" x2="780" y2="600" stroke="rgba(26,42,58,0.03)" stroke-width="1"/>
<rect x="0" y="420" width="800" height="180" fill="#e8ecf2"/>
<line x1="0" y1="420" x2="800" y2="420" stroke="#dce4ed" stroke-width="2"/>
<rect x="48" y="78" width="16" height="342" rx="2" fill="rgba(26,42,58,0.04)" stroke="#00AEEF" stroke-width="0.8" opacity="0.5"/><rect x="208" y="78" width="16" height="342" rx="2" fill="rgba(26,42,58,0.04)" stroke="#00AEEF" stroke-width="0.8" opacity="0.5"/><rect x="368" y="78" width="16" height="342" rx="2" fill="rgba(26,42,58,0.04)" stroke="#00AEEF" stroke-width="0.8" opacity="0.5"/><rect x="528" y="78" width="16" height="342" rx="2" fill="rgba(26,42,58,0.04)" stroke="#00AEEF" stroke-width="0.8" opacity="0.5"/><rect x="688" y="78" width="16" height="342" rx="2" fill="rgba(26,42,58,0.04)" stroke="#00AEEF" stroke-width="0.8" opacity="0.5"/>
<rect x="0" y="78" width="800" height="14" fill="#1a2a3a"/>
<rect x="0" y="78" width="800" height="4" fill="#00AEEF"/>
<rect x="100" y="355" width="600" height="65" rx="6" fill="rgba(26,42,58,0.05)" stroke="#00AEEF" stroke-width="1" opacity="0.5"/>
<circle cx="128" cy="388" r="17" fill="#243547" stroke="#00AEEF" stroke-width="1.2" opacity="0.7"/><circle cx="188" cy="388" r="17" fill="#243547" stroke="#00AEEF" stroke-width="1.2" opacity="0.7"/><circle cx="248" cy="388" r="17" fill="#243547" stroke="#00AEEF" stroke-width="1.2" opacity="0.7"/><circle cx="308" cy="388" r="17" fill="#243547" stroke="#00AEEF" stroke-width="1.2" opacity="0.7"/><circle cx="368" cy="388" r="17" fill="#243547" stroke="#00AEEF" stroke-width="1.2" opacity="0.7"/><circle cx="428" cy="388" r="17" fill="#243547" stroke="#00AEEF" stroke-width="1.2" opacity="0.7"/><circle cx="488" cy="388" r="17" fill="#243547" stroke="#00AEEF" stroke-width="1.2" opacity="0.7"/><circle cx="548" cy="388" r="17" fill="#243547" stroke="#00AEEF" stroke-width="1.2" opacity="0.7"/><circle cx="608" cy="388" r="17" fill="#243547" stroke="#00AEEF" stroke-width="1.2" opacity="0.7"/><circle cx="668" cy="388" r="17" fill="#243547" stroke="#00AEEF" stroke-width="1.2" opacity="0.7"/><circle cx="728" cy="388" r="17" fill="#243547" stroke="#00AEEF" stroke-width="1.2" opacity="0.7"/>
<rect x="380" y="108" width="190" height="78" rx="4" fill="rgba(0,174,239,0.06)" stroke="#00AEEF" stroke-width="1" opacity="0.6"/>
<text x="475" y="146" font-family="Arial Black,sans-serif" font-size="18" font-weight="900" fill="#00AEEF" text-anchor="middle" letter-spacing="3" opacity="0.7">ELVONIS</text>
<text x="475" y="168" font-family="Arial,sans-serif" font-size="9" fill="rgba(26,42,58,0.4)" text-anchor="middle" letter-spacing="2">伊凡仕</text>
<rect x="42" y="440" width="116" height="58" rx="3" fill="rgba(0,174,239,0.08)" stroke="#00AEEF" stroke-width="1"/>
<text x="100" y="464" font-family="Arial Black,sans-serif" font-size="18" font-weight="900" fill="#00AEEF" text-anchor="middle">CE</text>
<text x="100" y="484" font-family="Arial,sans-serif" font-size="8" fill="rgba(26,42,58,0.5)" text-anchor="middle" letter-spacing="1">CERTIFIED</text>
<rect x="642" y="440" width="116" height="58" rx="3" fill="rgba(0,174,239,0.08)" stroke="#00AEEF" stroke-width="1"/>
<text x="700" y="462" font-family="Arial Black,sans-serif" font-size="16" font-weight="900" fill="#00AEEF" text-anchor="middle">OEM</text>
<text x="700" y="482" font-family="Arial,sans-serif" font-size="8" fill="rgba(26,42,58,0.5)" text-anchor="middle" letter-spacing="1">AVAILABLE</text>
<rect x="0" y="594" width="800" height="6" fill="#00AEEF" opacity="0.6"/>
</svg>