<svg xmlns="http://www.w3.org/2000/svg" viewBox="0 0 800 450" width="800" height="450">
<defs>
<linearGradient id="bg" x1="0" y1="0" x2="1" y2="1" gradientUnits="objectBoundingBox">
<stop offset="0%" stop-color="#1a2a3a"/><stop offset="100%" stop-color="#243547"/>
</linearGradient></defs>
<rect width="800" height="450" fill="url(#bg)"/>
<line x1="0" y1="0" x2="800" y2="0" stroke="rgba(255,255,255,0.025)" stroke-width="1"/><line x1="0" y1="45" x2="800" y2="45" stroke="rgba(255,255,255,0.025)" stroke-width="1"/><line x1="0" y1="90" x2="800" y2="90" stroke="rgba(255,255,255,0.025)" stroke-width="1"/><line x1="0" y1="135" x2="800" y2="135" stroke="rgba(255,255,255,0.025)" stroke-width="1"/><line x1="0" y1="180" x2="800" y2="180" stroke="rgba(255,255,255,0.025)" stroke-width="1"/><line x1="0" y1="225" x2="800" y2="225" stroke="rgba(255,255,255,0.025)" stroke-width="1"/><line x1="0" y1="270" x2="800" y2="270" stroke="rgba(255,255,255,0.025)" stroke-width="1"/><line x1="0" y1="315" x2="800" y2="315" stroke="rgba(255,255,255,0.025)" stroke-width="1"/><line x1="0" y1="360" x2="800" y2="360" stroke="rgba(255,255,255,0.025)" stroke-width="1"/><line x1="0" y1="405" x2="800" y2="405" stroke="rgba(255,255,255,0.025)" stroke-width="1"/><line x1="0" y1="450" x2="800" y2="450" stroke="rgba(255,255,255,0.025)" stroke-width="1"/>
<rect x="0" y="0" width="800" height="4" fill="#00AEEF"/>
<rect x="48" y="48" width="120" height="26" rx="3" fill="rgba(0,174,239,0.15)" stroke="#00AEEF" stroke-width="1"/>
<text x="108" y="65" font-family="Arial,sans-serif" font-size="9" font-weight="700" fill="#00AEEF" text-anchor="middle" letter-spacing="2">MAINTENANCE</text>
<text x="80" y="230" font-family="Arial,sans-serif" font-size="82">🔧</text>
<rect x="0" y="438" width="800" height="4" fill="#00AEEF" opacity="0.6"/>
<text x="750" y="430" font-family="Arial,sans-serif" font-size="9" fill="rgba(255,255,255,0.2)" text-anchor="end" letter-spacing="1">ELVONIS</text>
</svg>