<svg xmlns="http://www.w3.org/2000/svg" viewBox="0 0 800 450" width="800" height="450">
<defs>
  <linearGradient id="bg" x1="0" y1="0" x2="1" y2="1" gradientUnits="objectBoundingBox">
    <stop offset="0%" stop-color="#0f1e2b"/><stop offset="100%" stop-color="#243547"/>
  </linearGradient>
  <linearGradient id="gold" x1="0" y1="0" x2="1" y2="0" gradientUnits="objectBoundingBox">
    <stop offset="0%" stop-color="#c9a84c"/><stop offset="100%" stop-color="#f0d98a"/>
  </linearGradient>
</defs>
<rect width="800" height="450" fill="url(#bg)"/>
<line x1="0" y1="0" x2="800" y2="0" stroke="rgba(255,255,255,0.025)" stroke-width="1"/><line x1="0" y1="45" x2="800" y2="45" stroke="rgba(255,255,255,0.025)" stroke-width="1"/><line x1="0" y1="90" x2="800" y2="90" stroke="rgba(255,255,255,0.025)" stroke-width="1"/><line x1="0" y1="135" x2="800" y2="135" stroke="rgba(255,255,255,0.025)" stroke-width="1"/><line x1="0" y1="180" x2="800" y2="180" stroke="rgba(255,255,255,0.025)" stroke-width="1"/><line x1="0" y1="225" x2="800" y2="225" stroke="rgba(255,255,255,0.025)" stroke-width="1"/><line x1="0" y1="270" x2="800" y2="270" stroke="rgba(255,255,255,0.025)" stroke-width="1"/><line x1="0" y1="315" x2="800" y2="315" stroke="rgba(255,255,255,0.025)" stroke-width="1"/><line x1="0" y1="360" x2="800" y2="360" stroke="rgba(255,255,255,0.025)" stroke-width="1"/><line x1="0" y1="405" x2="800" y2="405" stroke="rgba(255,255,255,0.025)" stroke-width="1"/><line x1="0" y1="450" x2="800" y2="450" stroke="rgba(255,255,255,0.025)" stroke-width="1"/>
<line x1="0" y1="0" x2="0" y2="450" stroke="rgba(255,255,255,0.025)" stroke-width="1"/><line x1="50" y1="0" x2="50" y2="450" stroke="rgba(255,255,255,0.025)" stroke-width="1"/><line x1="100" y1="0" x2="100" y2="450" stroke="rgba(255,255,255,0.025)" stroke-width="1"/><line x1="150" y1="0" x2="150" y2="450" stroke="rgba(255,255,255,0.025)" stroke-width="1"/><line x1="200" y1="0" x2="200" y2="450" stroke="rgba(255,255,255,0.025)" stroke-width="1"/><line x1="250" y1="0" x2="250" y2="450" stroke="rgba(255,255,255,0.025)" stroke-width="1"/><line x1="300" y1="0" x2="300" y2="450" stroke="rgba(255,255,255,0.025)" stroke-width="1"/><line x1="350" y1="0" x2="350" y2="450" stroke="rgba(255,255,255,0.025)" stroke-width="1"/><line x1="400" y1="0" x2="400" y2="450" stroke="rgba(255,255,255,0.025)" stroke-width="1"/><line x1="450" y1="0" x2="450" y2="450" stroke="rgba(255,255,255,0.025)" stroke-width="1"/><line x1="500" y1="0" x2="500" y2="450" stroke="rgba(255,255,255,0.025)" stroke-width="1"/><line x1="550" y1="0" x2="550" y2="450" stroke="rgba(255,255,255,0.025)" stroke-width="1"/><line x1="600" y1="0" x2="600" y2="450" stroke="rgba(255,255,255,0.025)" stroke-width="1"/><line x1="650" y1="0" x2="650" y2="450" stroke="rgba(255,255,255,0.025)" stroke-width="1"/><line x1="700" y1="0" x2="700" y2="450" stroke="rgba(255,255,255,0.025)" stroke-width="1"/><line x1="750" y1="0" x2="750" y2="450" stroke="rgba(255,255,255,0.025)" stroke-width="1"/><line x1="800" y1="0" x2="800" y2="450" stroke="rgba(255,255,255,0.025)" stroke-width="1"/>
<!-- big bg icon -->
<text x="620" y="350" font-family="Arial,sans-serif" font-size="220" fill="rgba(255,255,255,0.04)" text-anchor="middle">🔧</text>
<!-- gold bar top -->
<rect x="0" y="0" width="800" height="5" fill="url(#gold)"/>
<!-- category tag -->
<rect x="50" y="50" width="140" height="26" rx="3" fill="rgba(201,168,76,0.15)" stroke="rgba(201,168,76,0.4)" stroke-width="1"/>
<text x="120" y="67" font-family="Arial,sans-serif" font-size="10" font-weight="700" fill="#c9a84c" text-anchor="middle" letter-spacing="2">MAINTENANCE</text>
<!-- main icon -->
<text x="80" y="230" font-family="Arial,sans-serif" font-size="72">🔧</text>
<!-- title -->
<text x="50" y="295" font-family="Arial Black,sans-serif" font-size="22" font-weight="900" fill="white">Brush Pad Replacement </text>
<text x="50" y="325" font-family="Arial,sans-serif" font-size="22" font-weight="900" fill="white">Guide</text>
<!-- gold bottom line -->
<rect x="0" y="440" width="800" height="4" fill="url(#gold)" opacity="0.6"/>
<!-- CLEANPRO watermark -->
<text x="750" y="430" font-family="Arial,sans-serif" font-size="9" fill="rgba(255,255,255,0.18)" text-anchor="end" letter-spacing="1">CLEANPRO</text>
</svg>