<svg xmlns="http://www.w3.org/2000/svg" viewBox="0 0 800 600" width="800" height="600">
<defs>
  <linearGradient id="bg" x1="0" y1="0" x2="0" y2="1" gradientUnits="objectBoundingBox">
    <stop offset="0%" stop-color="#f5f7fa"/><stop offset="100%" stop-color="#e8ecf2"/>
  </linearGradient>
  <linearGradient id="navy" x1="0" y1="0" x2="0" y2="1" gradientUnits="objectBoundingBox">
    <stop offset="0%" stop-color="#243547"/><stop offset="100%" stop-color="#1a2a3a"/>
  </linearGradient>
</defs>
<rect width="800" height="600" fill="url(#bg)"/>
<rect x="0" y="0" width="800" height="4" fill="#00AEEF"/><rect x="0" y="430" width="800" height="170" fill="#e8ecf2"/><line x1="0" y1="430" x2="800" y2="430" stroke="#dce4ed" stroke-width="2"/><line x1="0" y1="450" x2="800" y2="450" stroke="rgba(26,42,58,0.04)" stroke-width="1"/><line x1="0" y1="480" x2="800" y2="480" stroke="rgba(26,42,58,0.04)" stroke-width="1"/><line x1="0" y1="510" x2="800" y2="510" stroke="rgba(26,42,58,0.04)" stroke-width="1"/><line x1="0" y1="540" x2="800" y2="540" stroke="rgba(26,42,58,0.04)" stroke-width="1"/><line x1="0" y1="570" x2="800" y2="570" stroke="rgba(26,42,58,0.04)" stroke-width="1"/><line x1="0" y1="600" x2="800" y2="600" stroke="rgba(26,42,58,0.04)" stroke-width="1"/><line x1="0" y1="430" x2="0" y2="600" stroke="rgba(26,42,58,0.04)" stroke-width="1"/><line x1="80" y1="430" x2="80" y2="600" stroke="rgba(26,42,58,0.04)" stroke-width="1"/><line x1="160" y1="430" x2="160" y2="600" stroke="rgba(26,42,58,0.04)" stroke-width="1"/><line x1="240" y1="430" x2="240" y2="600" stroke="rgba(26,42,58,0.04)" stroke-width="1"/><line x1="320" y1="430" x2="320" y2="600" stroke="rgba(26,42,58,0.04)" stroke-width="1"/><line x1="400" y1="430" x2="400" y2="600" stroke="rgba(26,42,58,0.04)" stroke-width="1"/><line x1="480" y1="430" x2="480" y2="600" stroke="rgba(26,42,58,0.04)" stroke-width="1"/><line x1="560" y1="430" x2="560" y2="600" stroke="rgba(26,42,58,0.04)" stroke-width="1"/><line x1="640" y1="430" x2="640" y2="600" stroke="rgba(26,42,58,0.04)" stroke-width="1"/><line x1="720" y1="430" x2="720" y2="600" stroke="rgba(26,42,58,0.04)" stroke-width="1"/><line x1="800" y1="430" x2="800" y2="600" stroke="rgba(26,42,58,0.04)" stroke-width="1"/><ellipse cx="400" cy="437" rx="215" ry="12" fill="rgba(26,42,58,0.10)"/>
<!-- body -->
<rect x="190" y="193" width="420" height="242" rx="14" fill="url(#navy)"/>
<rect x="190" y="193" width="420" height="7" fill="#00AEEF"/>
<!-- cab -->
<rect x="252" y="108" width="214" height="102" rx="10" fill="#243547"/>
<rect x="252" y="102" width="214" height="8" rx="4" fill="#00AEEF"/>
<rect x="270" y="118" width="178" height="70" rx="5" fill="rgba(120,185,240,0.16)" stroke="#00AEEF" stroke-width="1.5" opacity="0.6"/>
<line x1="288" y1="122" x2="300" y2="188" stroke="rgba(255,255,255,0.18)" stroke-width="2"/>
<!-- seat -->
<rect x="304" y="155" width="106" height="32" rx="6" fill="#1a2a3a"/>
<!-- left panel -->
<rect x="200" y="212" width="88" height="170" rx="4" fill="rgba(0,0,0,0.14)"/>
<circle cx="228" cy="238" r="9" fill="#00AEEF" opacity="0.95"/>
<circle cx="256" cy="238" r="9" fill="#22c55e" opacity="0.9"/>
<rect x="214" y="258" width="64" height="5" rx="2" fill="#00AEEF" opacity="0.4"/>
<rect x="214" y="270" width="50" height="3" rx="1" fill="rgba(255,255,255,0.10)"/><rect x="214" y="281" width="47" height="3" rx="1" fill="rgba(255,255,255,0.10)"/><rect x="214" y="292" width="44" height="3" rx="1" fill="rgba(255,255,255,0.10)"/><rect x="214" y="303" width="41" height="3" rx="1" fill="rgba(255,255,255,0.10)"/>
<!-- water tank -->
<rect x="302" y="210" width="178" height="140" rx="5" fill="rgba(255,255,255,0.05)" stroke="#00AEEF" stroke-width="1" opacity="0.3"/>
<rect x="312" y="218" width="158" height="5" rx="2" fill="#00AEEF" opacity="0.45"/>
<rect x="348" y="230" width="118" height="4" rx="1" fill="rgba(255,255,255,0.08)"/><rect x="348" y="242" width="113" height="4" rx="1" fill="rgba(255,255,255,0.08)"/><rect x="348" y="254" width="108" height="4" rx="1" fill="rgba(255,255,255,0.08)"/><rect x="348" y="266" width="103" height="4" rx="1" fill="rgba(255,255,255,0.08)"/><rect x="348" y="278" width="98" height="4" rx="1" fill="rgba(255,255,255,0.08)"/><rect x="348" y="290" width="93" height="4" rx="1" fill="rgba(255,255,255,0.08)"/>
<!-- right panel -->
<rect x="492" y="212" width="106" height="188" rx="4" fill="rgba(0,0,0,0.10)"/>
<rect x="502" y="224" width="86" height="4" rx="1" fill="rgba(255,255,255,0.07)"/><rect x="502" y="238" width="84" height="4" rx="1" fill="rgba(255,255,255,0.07)"/><rect x="502" y="252" width="82" height="4" rx="1" fill="rgba(255,255,255,0.07)"/><rect x="502" y="266" width="80" height="4" rx="1" fill="rgba(255,255,255,0.07)"/><rect x="502" y="280" width="78" height="4" rx="1" fill="rgba(255,255,255,0.07)"/><rect x="502" y="294" width="76" height="4" rx="1" fill="rgba(255,255,255,0.07)"/><rect x="502" y="308" width="74" height="4" rx="1" fill="rgba(255,255,255,0.07)"/>
<rect x="340" y="339" width="120" height="28" rx="3" fill="rgba(0,174,239,0.10)" stroke="#00AEEF" stroke-width="1"/><text x="400" y="358" font-family="Arial,sans-serif" font-size="11" font-weight="700" fill="#00AEEF" text-anchor="middle" letter-spacing="1">ELVONIS FS-100R</text>
<!-- brush deck -->
<ellipse cx="400" cy="450" rx="215" ry="20" fill="#243547" stroke="#00AEEF" stroke-width="2"/>
<ellipse cx="400" cy="448" rx="196" ry="11" fill="#1a2a3a"/>
<line x1="192" y1="456" x2="192" y2="466" stroke="#00AEEF" stroke-width="2.5" opacity="0.6"/><line x1="211" y1="456" x2="211" y2="466" stroke="#00AEEF" stroke-width="2.5" opacity="0.6"/><line x1="231" y1="456" x2="231" y2="466" stroke="#00AEEF" stroke-width="2.5" opacity="0.6"/><line x1="251" y1="456" x2="251" y2="466" stroke="#00AEEF" stroke-width="2.5" opacity="0.6"/><line x1="271" y1="456" x2="271" y2="466" stroke="#00AEEF" stroke-width="2.5" opacity="0.6"/><line x1="291" y1="456" x2="291" y2="466" stroke="#00AEEF" stroke-width="2.5" opacity="0.6"/><line x1="310" y1="456" x2="310" y2="466" stroke="#00AEEF" stroke-width="2.5" opacity="0.6"/><line x1="330" y1="456" x2="330" y2="466" stroke="#00AEEF" stroke-width="2.5" opacity="0.6"/><line x1="350" y1="456" x2="350" y2="466" stroke="#00AEEF" stroke-width="2.5" opacity="0.6"/><line x1="370" y1="456" x2="370" y2="466" stroke="#00AEEF" stroke-width="2.5" opacity="0.6"/><line x1="390" y1="456" x2="390" y2="466" stroke="#00AEEF" stroke-width="2.5" opacity="0.6"/><line x1="409" y1="456" x2="409" y2="466" stroke="#00AEEF" stroke-width="2.5" opacity="0.6"/><line x1="429" y1="456" x2="429" y2="466" stroke="#00AEEF" stroke-width="2.5" opacity="0.6"/><line x1="449" y1="456" x2="449" y2="466" stroke="#00AEEF" stroke-width="2.5" opacity="0.6"/><line x1="469" y1="456" x2="469" y2="466" stroke="#00AEEF" stroke-width="2.5" opacity="0.6"/><line x1="489" y1="456" x2="489" y2="466" stroke="#00AEEF" stroke-width="2.5" opacity="0.6"/><line x1="508" y1="456" x2="508" y2="466" stroke="#00AEEF" stroke-width="2.5" opacity="0.6"/><line x1="528" y1="456" x2="528" y2="466" stroke="#00AEEF" stroke-width="2.5" opacity="0.6"/><line x1="548" y1="456" x2="548" y2="466" stroke="#00AEEF" stroke-width="2.5" opacity="0.6"/><line x1="568" y1="456" x2="568" y2="466" stroke="#00AEEF" stroke-width="2.5" opacity="0.6"/><line x1="588" y1="456" x2="588" y2="466" stroke="#00AEEF" stroke-width="2.5" opacity="0.6"/><line x1="608" y1="456" x2="608" y2="466" stroke="#00AEEF" stroke-width="2.5" opacity="0.6"/>
<rect x="180" y="456" width="440" height="7" rx="3" fill="#00AEEF" opacity="0.5"/>
<circle cx="246" cy="425" r="32" fill="#1a2a3a" stroke="#00AEEF" stroke-width="2"/><circle cx="246" cy="425" r="20" fill="#243547"/><circle cx="246" cy="425" r="5" fill="#00AEEF"/><line x1="246" y1="425" x2="266" y2="425" stroke="#00AEEF" stroke-width="1.8" opacity="0.6"/><line x1="246" y1="425" x2="246" y2="445" stroke="#00AEEF" stroke-width="1.8" opacity="0.6"/><line x1="246" y1="425" x2="260" y2="439" stroke="#00AEEF" stroke-width="1.8" opacity="0.6"/><line x1="246" y1="425" x2="232" y2="439" stroke="#00AEEF" stroke-width="1.8" opacity="0.6"/><line x1="246" y1="425" x2="226" y2="425" stroke="#00AEEF" stroke-width="1.8" opacity="0.6"/><line x1="246" y1="425" x2="246" y2="405" stroke="#00AEEF" stroke-width="1.8" opacity="0.6"/><line x1="246" y1="425" x2="232" y2="411" stroke="#00AEEF" stroke-width="1.8" opacity="0.6"/><line x1="246" y1="425" x2="260" y2="411" stroke="#00AEEF" stroke-width="1.8" opacity="0.6"/><circle cx="554" cy="425" r="32" fill="#1a2a3a" stroke="#00AEEF" stroke-width="2"/><circle cx="554" cy="425" r="20" fill="#243547"/><circle cx="554" cy="425" r="5" fill="#00AEEF"/><line x1="554" y1="425" x2="574" y2="425" stroke="#00AEEF" stroke-width="1.8" opacity="0.6"/><line x1="554" y1="425" x2="554" y2="445" stroke="#00AEEF" stroke-width="1.8" opacity="0.6"/><line x1="554" y1="425" x2="568" y2="439" stroke="#00AEEF" stroke-width="1.8" opacity="0.6"/><line x1="554" y1="425" x2="540" y2="439" stroke="#00AEEF" stroke-width="1.8" opacity="0.6"/><line x1="554" y1="425" x2="534" y2="425" stroke="#00AEEF" stroke-width="1.8" opacity="0.6"/><line x1="554" y1="425" x2="554" y2="405" stroke="#00AEEF" stroke-width="1.8" opacity="0.6"/><line x1="554" y1="425" x2="540" y2="411" stroke="#00AEEF" stroke-width="1.8" opacity="0.6"/><line x1="554" y1="425" x2="568" y2="411" stroke="#00AEEF" stroke-width="1.8" opacity="0.6"/>
<text x="400" y="590" font-family="Arial,sans-serif" font-size="9" fill="rgba(26,42,58,0.2)" text-anchor="middle" letter-spacing="1">ELVONIS — FS-100R</text>
</svg>