<svg xmlns="http://www.w3.org/2000/svg" viewBox="0 0 800 600" width="800" height="600">
<defs>
  <linearGradient id="bg" x1="0" y1="0" x2="0" y2="1" gradientUnits="objectBoundingBox">
    <stop offset="0%" stop-color="#f5f7fa"/><stop offset="100%" stop-color="#e8ecf2"/>
  </linearGradient>
  <linearGradient id="navy" x1="0" y1="0" x2="0" y2="1" gradientUnits="objectBoundingBox">
    <stop offset="0%" stop-color="#243547"/><stop offset="100%" stop-color="#1a2a3a"/>
  </linearGradient>
</defs>
<rect width="800" height="600" fill="url(#bg)"/>
<rect x="0" y="0" width="800" height="4" fill="#00AEEF"/><rect x="0" y="445" width="800" height="155" fill="#e8ecf2"/><line x1="0" y1="445" x2="800" y2="445" stroke="#dce4ed" stroke-width="2"/><line x1="0" y1="465" x2="800" y2="465" stroke="rgba(26,42,58,0.04)" stroke-width="1"/><line x1="0" y1="495" x2="800" y2="495" stroke="rgba(26,42,58,0.04)" stroke-width="1"/><line x1="0" y1="525" x2="800" y2="525" stroke="rgba(26,42,58,0.04)" stroke-width="1"/><line x1="0" y1="555" x2="800" y2="555" stroke="rgba(26,42,58,0.04)" stroke-width="1"/><line x1="0" y1="585" x2="800" y2="585" stroke="rgba(26,42,58,0.04)" stroke-width="1"/><line x1="0" y1="615" x2="800" y2="615" stroke="rgba(26,42,58,0.04)" stroke-width="1"/><line x1="0" y1="445" x2="0" y2="600" stroke="rgba(26,42,58,0.04)" stroke-width="1"/><line x1="80" y1="445" x2="80" y2="600" stroke="rgba(26,42,58,0.04)" stroke-width="1"/><line x1="160" y1="445" x2="160" y2="600" stroke="rgba(26,42,58,0.04)" stroke-width="1"/><line x1="240" y1="445" x2="240" y2="600" stroke="rgba(26,42,58,0.04)" stroke-width="1"/><line x1="320" y1="445" x2="320" y2="600" stroke="rgba(26,42,58,0.04)" stroke-width="1"/><line x1="400" y1="445" x2="400" y2="600" stroke="rgba(26,42,58,0.04)" stroke-width="1"/><line x1="480" y1="445" x2="480" y2="600" stroke="rgba(26,42,58,0.04)" stroke-width="1"/><line x1="560" y1="445" x2="560" y2="600" stroke="rgba(26,42,58,0.04)" stroke-width="1"/><line x1="640" y1="445" x2="640" y2="600" stroke="rgba(26,42,58,0.04)" stroke-width="1"/><line x1="720" y1="445" x2="720" y2="600" stroke="rgba(26,42,58,0.04)" stroke-width="1"/><line x1="800" y1="445" x2="800" y2="600" stroke="rgba(26,42,58,0.04)" stroke-width="1"/><ellipse cx="400" cy="451" rx="148" ry="10" fill="rgba(26,42,58,0.10)"/>
<!-- handle -->
<rect x="362" y="65" width="76" height="13" rx="6" fill="#243547" stroke="#00AEEF" stroke-width="1.5"/>
<rect x="380" y="55" width="10" height="100" rx="5" fill="#243547"/>
<rect x="410" y="55" width="10" height="100" rx="5" fill="#243547"/>
<rect x="360" y="55" width="80" height="22" rx="6" fill="#1a2a3a"/>
<rect x="368" y="58" width="64" height="16" rx="5" fill="#243547" stroke="#00AEEF" stroke-width="1" opacity="0.4"/>
<!-- body -->
<rect x="272" y="168" width="256" height="282" rx="12" fill="url(#navy)"/>
<rect x="272" y="168" width="256" height="7" fill="#00AEEF"/>
<!-- control panel -->
<rect x="282" y="188" width="94" height="210" rx="4" fill="rgba(0,0,0,0.13)"/>
<circle cx="312" cy="215" r="9" fill="#00AEEF" opacity="0.95"/>
<circle cx="340" cy="215" r="9" fill="#22c55e" opacity="0.9"/>
<rect x="290" y="234" width="72" height="4" rx="2" fill="#00AEEF" opacity="0.4"/>
<rect x="290" y="246" width="56" height="3" rx="1" fill="rgba(255,255,255,0.10)"/><rect x="290" y="256" width="52" height="3" rx="1" fill="rgba(255,255,255,0.10)"/><rect x="290" y="266" width="48" height="3" rx="1" fill="rgba(255,255,255,0.10)"/><rect x="290" y="276" width="44" height="3" rx="1" fill="rgba(255,255,255,0.10)"/>
<!-- water tank -->
<rect x="390" y="183" width="126" height="252" rx="4" fill="rgba(255,255,255,0.05)" stroke="#00AEEF" stroke-width="0.8" opacity="0.4"/>
<rect x="398" y="198" width="28" height="120" rx="2" fill="rgba(100,165,225,0.10)" stroke="#00AEEF" stroke-width="1" opacity="0.6"/>
<rect x="400" y="260" width="24" height="58" rx="1" fill="rgba(100,165,225,0.25)"/>
<rect x="440" y="200" width="66" height="4" rx="1" fill="rgba(255,255,255,0.08)"/><rect x="440" y="212" width="66" height="4" rx="1" fill="rgba(255,255,255,0.08)"/><rect x="440" y="224" width="66" height="4" rx="1" fill="rgba(255,255,255,0.08)"/><rect x="440" y="236" width="66" height="4" rx="1" fill="rgba(255,255,255,0.08)"/><rect x="440" y="248" width="66" height="4" rx="1" fill="rgba(255,255,255,0.08)"/><rect x="440" y="260" width="66" height="4" rx="1" fill="rgba(255,255,255,0.08)"/>
<rect x="340" y="348" width="120" height="28" rx="3" fill="rgba(0,174,239,0.10)" stroke="#00AEEF" stroke-width="1"/><text x="400" y="367" font-family="Arial,sans-serif" font-size="11" font-weight="700" fill="#00AEEF" text-anchor="middle" letter-spacing="1">ELVONIS FS-65W</text>
<!-- brush deck -->
<ellipse cx="400" cy="462" rx="155" ry="17" fill="#243547" stroke="#00AEEF" stroke-width="2"/>
<ellipse cx="400" cy="460" rx="136" ry="10" fill="#1a2a3a"/>
<line x1="250" y1="467" x2="250" y2="477" stroke="#00AEEF" stroke-width="2.5" opacity="0.6"/><line x1="270" y1="467" x2="270" y2="477" stroke="#00AEEF" stroke-width="2.5" opacity="0.6"/><line x1="290" y1="467" x2="290" y2="477" stroke="#00AEEF" stroke-width="2.5" opacity="0.6"/><line x1="310" y1="467" x2="310" y2="477" stroke="#00AEEF" stroke-width="2.5" opacity="0.6"/><line x1="330" y1="467" x2="330" y2="477" stroke="#00AEEF" stroke-width="2.5" opacity="0.6"/><line x1="350" y1="467" x2="350" y2="477" stroke="#00AEEF" stroke-width="2.5" opacity="0.6"/><line x1="370" y1="467" x2="370" y2="477" stroke="#00AEEF" stroke-width="2.5" opacity="0.6"/><line x1="390" y1="467" x2="390" y2="477" stroke="#00AEEF" stroke-width="2.5" opacity="0.6"/><line x1="410" y1="467" x2="410" y2="477" stroke="#00AEEF" stroke-width="2.5" opacity="0.6"/><line x1="430" y1="467" x2="430" y2="477" stroke="#00AEEF" stroke-width="2.5" opacity="0.6"/><line x1="450" y1="467" x2="450" y2="477" stroke="#00AEEF" stroke-width="2.5" opacity="0.6"/><line x1="470" y1="467" x2="470" y2="477" stroke="#00AEEF" stroke-width="2.5" opacity="0.6"/><line x1="490" y1="467" x2="490" y2="477" stroke="#00AEEF" stroke-width="2.5" opacity="0.6"/><line x1="510" y1="467" x2="510" y2="477" stroke="#00AEEF" stroke-width="2.5" opacity="0.6"/><line x1="530" y1="467" x2="530" y2="477" stroke="#00AEEF" stroke-width="2.5" opacity="0.6"/><line x1="550" y1="467" x2="550" y2="477" stroke="#00AEEF" stroke-width="2.5" opacity="0.6"/>
<rect x="244" y="466" width="312" height="6" rx="3" fill="#00AEEF" opacity="0.5"/>
<circle cx="302" cy="440" r="22" fill="#1a2a3a" stroke="#00AEEF" stroke-width="2"/><circle cx="302" cy="440" r="13" fill="#243547"/><circle cx="302" cy="440" r="4" fill="#00AEEF"/><line x1="302" y1="440" x2="315" y2="440" stroke="#00AEEF" stroke-width="1.8" opacity="0.6"/><line x1="302" y1="440" x2="302" y2="453" stroke="#00AEEF" stroke-width="1.8" opacity="0.6"/><line x1="302" y1="440" x2="311" y2="449" stroke="#00AEEF" stroke-width="1.8" opacity="0.6"/><line x1="302" y1="440" x2="293" y2="449" stroke="#00AEEF" stroke-width="1.8" opacity="0.6"/><line x1="302" y1="440" x2="289" y2="440" stroke="#00AEEF" stroke-width="1.8" opacity="0.6"/><line x1="302" y1="440" x2="302" y2="427" stroke="#00AEEF" stroke-width="1.8" opacity="0.6"/><line x1="302" y1="440" x2="293" y2="431" stroke="#00AEEF" stroke-width="1.8" opacity="0.6"/><line x1="302" y1="440" x2="311" y2="431" stroke="#00AEEF" stroke-width="1.8" opacity="0.6"/><circle cx="498" cy="440" r="22" fill="#1a2a3a" stroke="#00AEEF" stroke-width="2"/><circle cx="498" cy="440" r="13" fill="#243547"/><circle cx="498" cy="440" r="4" fill="#00AEEF"/><line x1="498" y1="440" x2="511" y2="440" stroke="#00AEEF" stroke-width="1.8" opacity="0.6"/><line x1="498" y1="440" x2="498" y2="453" stroke="#00AEEF" stroke-width="1.8" opacity="0.6"/><line x1="498" y1="440" x2="507" y2="449" stroke="#00AEEF" stroke-width="1.8" opacity="0.6"/><line x1="498" y1="440" x2="489" y2="449" stroke="#00AEEF" stroke-width="1.8" opacity="0.6"/><line x1="498" y1="440" x2="485" y2="440" stroke="#00AEEF" stroke-width="1.8" opacity="0.6"/><line x1="498" y1="440" x2="498" y2="427" stroke="#00AEEF" stroke-width="1.8" opacity="0.6"/><line x1="498" y1="440" x2="489" y2="431" stroke="#00AEEF" stroke-width="1.8" opacity="0.6"/><line x1="498" y1="440" x2="507" y2="431" stroke="#00AEEF" stroke-width="1.8" opacity="0.6"/>
<text x="400" y="590" font-family="Arial,sans-serif" font-size="9" fill="rgba(26,42,58,0.2)" text-anchor="middle" letter-spacing="1">ELVONIS — FS-65W</text>
</svg>