<svg xmlns="http://www.w3.org/2000/svg" viewBox="0 0 800 600" width="800" height="600">
<defs>
  <linearGradient id="bg" x1="0" y1="0" x2="0" y2="1" gradientUnits="objectBoundingBox">
    <stop offset="0%" stop-color="#f5f7fa"/><stop offset="100%" stop-color="#e8ecf2"/>
  </linearGradient>
  <linearGradient id="navy" x1="0" y1="0" x2="0" y2="1" gradientUnits="objectBoundingBox">
    <stop offset="0%" stop-color="#243547"/><stop offset="100%" stop-color="#1a2a3a"/>
  </linearGradient>
</defs>
<rect width="800" height="600" fill="url(#bg)"/>
<rect x="0" y="0" width="800" height="4" fill="#00AEEF"/><rect x="0" y="455" width="800" height="145" fill="#e8ecf2"/><line x1="0" y1="455" x2="800" y2="455" stroke="#dce4ed" stroke-width="2"/><line x1="0" y1="475" x2="800" y2="475" stroke="rgba(26,42,58,0.04)" stroke-width="1"/><line x1="0" y1="505" x2="800" y2="505" stroke="rgba(26,42,58,0.04)" stroke-width="1"/><line x1="0" y1="535" x2="800" y2="535" stroke="rgba(26,42,58,0.04)" stroke-width="1"/><line x1="0" y1="565" x2="800" y2="565" stroke="rgba(26,42,58,0.04)" stroke-width="1"/><line x1="0" y1="595" x2="800" y2="595" stroke="rgba(26,42,58,0.04)" stroke-width="1"/><line x1="0" y1="625" x2="800" y2="625" stroke="rgba(26,42,58,0.04)" stroke-width="1"/><line x1="0" y1="455" x2="0" y2="600" stroke="rgba(26,42,58,0.04)" stroke-width="1"/><line x1="80" y1="455" x2="80" y2="600" stroke="rgba(26,42,58,0.04)" stroke-width="1"/><line x1="160" y1="455" x2="160" y2="600" stroke="rgba(26,42,58,0.04)" stroke-width="1"/><line x1="240" y1="455" x2="240" y2="600" stroke="rgba(26,42,58,0.04)" stroke-width="1"/><line x1="320" y1="455" x2="320" y2="600" stroke="rgba(26,42,58,0.04)" stroke-width="1"/><line x1="400" y1="455" x2="400" y2="600" stroke="rgba(26,42,58,0.04)" stroke-width="1"/><line x1="480" y1="455" x2="480" y2="600" stroke="rgba(26,42,58,0.04)" stroke-width="1"/><line x1="560" y1="455" x2="560" y2="600" stroke="rgba(26,42,58,0.04)" stroke-width="1"/><line x1="640" y1="455" x2="640" y2="600" stroke="rgba(26,42,58,0.04)" stroke-width="1"/><line x1="720" y1="455" x2="720" y2="600" stroke="rgba(26,42,58,0.04)" stroke-width="1"/><line x1="800" y1="455" x2="800" y2="600" stroke="rgba(26,42,58,0.04)" stroke-width="1"/><ellipse cx="400" cy="461" rx="155" ry="10" fill="rgba(26,42,58,0.10)"/>
<rect x="255" y="165" width="290" height="298" rx="12" fill="url(#navy)"/>
<rect x="255" y="165" width="290" height="7" fill="#00AEEF"/>
<!-- gauge -->
<circle cx="348" cy="232" r="42" fill="rgba(0,0,0,0.2)" stroke="#00AEEF" stroke-width="1.8"/>
<circle cx="348" cy="232" r="33" fill="#1a2a3a"/>
<line x1="322" y1="217" x2="326" y2="220" stroke="rgba(255,255,255,0.28)" stroke-width="1.5"/><line x1="333" y1="206" x2="336" y2="210" stroke="rgba(255,255,255,0.28)" stroke-width="1.5"/><line x1="348" y1="201" x2="348" y2="206" stroke="rgba(255,255,255,0.28)" stroke-width="1.5"/><line x1="363" y1="206" x2="361" y2="210" stroke="rgba(255,255,255,0.28)" stroke-width="1.5"/><line x1="374" y1="217" x2="370" y2="220" stroke="rgba(255,255,255,0.28)" stroke-width="1.5"/><line x1="379" y1="232" x2="374" y2="232" stroke="rgba(255,255,255,0.28)" stroke-width="1.5"/><line x1="374" y1="247" x2="370" y2="244" stroke="rgba(255,255,255,0.28)" stroke-width="1.5"/><line x1="363" y1="258" x2="361" y2="254" stroke="rgba(255,255,255,0.28)" stroke-width="1.5"/><line x1="348" y1="263" x2="348" y2="258" stroke="rgba(255,255,255,0.28)" stroke-width="1.5"/>
<line x1="348" y1="232" x2="367" y2="213" stroke="#00AEEF" stroke-width="2.5"/>
<circle cx="348" cy="232" r="4" fill="#00AEEF"/>
<text x="348" y="268" font-family="Arial,sans-serif" font-size="7" fill="rgba(0,174,239,0.6)" text-anchor="middle" letter-spacing="1">BAR</text>
<!-- on/off -->
<circle cx="456" cy="218" r="28" fill="rgba(0,0,0,0.2)" stroke="#00AEEF" stroke-width="1.5"/>
<circle cx="456" cy="218" r="20" fill="#1a2a3a" stroke="#22c55e" stroke-width="2.5"/>
<line x1="456" y1="202" x2="456" y2="218" stroke="#22c55e" stroke-width="3"/>
<!-- hose coil -->
<circle cx="368" cy="358" r="38" fill="none" stroke="#00AEEF" stroke-width="5" stroke-dasharray="8 5" opacity="0.45"/>
<circle cx="368" cy="358" r="23" fill="none" stroke="#00AEEF" stroke-width="3" stroke-dasharray="6 5" opacity="0.35"/>
<rect x="340" y="416" width="120" height="28" rx="3" fill="rgba(0,174,239,0.10)" stroke="#00AEEF" stroke-width="1"/><text x="400" y="435" font-family="Arial,sans-serif" font-size="11" font-weight="700" fill="#00AEEF" text-anchor="middle" letter-spacing="1">ELVONIS HP-200PRO</text>
<!-- wand -->
<rect x="575" y="175" width="13" height="238" rx="6" fill="#243547" stroke="#00AEEF" stroke-width="1"/>
<rect x="560" y="348" width="58" height="10" rx="5" fill="#243547" stroke="#00AEEF" stroke-width="1"/>
<circle cx="558" cy="352" r="7" fill="#1a2a3a" stroke="#00AEEF" stroke-width="2"/>
<line x1="556" y1="352" x2="516" y2="396" stroke="rgba(100,185,255,0.42)" stroke-width="2"/>
<line x1="556" y1="352" x2="510" y2="410" stroke="rgba(100,185,255,0.28)" stroke-width="1.5"/>
<!-- wheels -->
<circle cx="305" cy="455" r="17" fill="#1a2a3a" stroke="#00AEEF" stroke-width="2"/><circle cx="305" cy="455" r="10" fill="#243547"/><circle cx="305" cy="455" r="3" fill="#00AEEF"/><line x1="305" y1="455" x2="315" y2="455" stroke="#00AEEF" stroke-width="1.8" opacity="0.6"/><line x1="305" y1="455" x2="305" y2="465" stroke="#00AEEF" stroke-width="1.8" opacity="0.6"/><line x1="305" y1="455" x2="312" y2="462" stroke="#00AEEF" stroke-width="1.8" opacity="0.6"/><line x1="305" y1="455" x2="298" y2="462" stroke="#00AEEF" stroke-width="1.8" opacity="0.6"/><line x1="305" y1="455" x2="295" y2="455" stroke="#00AEEF" stroke-width="1.8" opacity="0.6"/><line x1="305" y1="455" x2="305" y2="445" stroke="#00AEEF" stroke-width="1.8" opacity="0.6"/><line x1="305" y1="455" x2="298" y2="448" stroke="#00AEEF" stroke-width="1.8" opacity="0.6"/><line x1="305" y1="455" x2="312" y2="448" stroke="#00AEEF" stroke-width="1.8" opacity="0.6"/><circle cx="500" cy="455" r="17" fill="#1a2a3a" stroke="#00AEEF" stroke-width="2"/><circle cx="500" cy="455" r="10" fill="#243547"/><circle cx="500" cy="455" r="3" fill="#00AEEF"/><line x1="500" y1="455" x2="510" y2="455" stroke="#00AEEF" stroke-width="1.8" opacity="0.6"/><line x1="500" y1="455" x2="500" y2="465" stroke="#00AEEF" stroke-width="1.8" opacity="0.6"/><line x1="500" y1="455" x2="507" y2="462" stroke="#00AEEF" stroke-width="1.8" opacity="0.6"/><line x1="500" y1="455" x2="493" y2="462" stroke="#00AEEF" stroke-width="1.8" opacity="0.6"/><line x1="500" y1="455" x2="490" y2="455" stroke="#00AEEF" stroke-width="1.8" opacity="0.6"/><line x1="500" y1="455" x2="500" y2="445" stroke="#00AEEF" stroke-width="1.8" opacity="0.6"/><line x1="500" y1="455" x2="493" y2="448" stroke="#00AEEF" stroke-width="1.8" opacity="0.6"/><line x1="500" y1="455" x2="507" y2="448" stroke="#00AEEF" stroke-width="1.8" opacity="0.6"/>

<text x="400" y="590" font-family="Arial,sans-serif" font-size="9" fill="rgba(26,42,58,0.2)" text-anchor="middle" letter-spacing="1">ELVONIS — HP-200PRO</text>
</svg>