<svg xmlns="http://www.w3.org/2000/svg" viewBox="0 0 800 600" width="800" height="600">
<defs>
  <linearGradient id="navy" x1="0" y1="0" x2="0" y2="1" gradientUnits="objectBoundingBox">
    <stop offset="0%" stop-color="#243547"/><stop offset="100%" stop-color="#1a2a3a"/>
  </linearGradient>
  <linearGradient id="gold" x1="0" y1="0" x2="1" y2="0" gradientUnits="objectBoundingBox">
    <stop offset="0%" stop-color="#c9a84c"/><stop offset="100%" stop-color="#f0d98a"/>
  </linearGradient>
  <linearGradient id="softbg" x1="0" y1="0" x2="0" y2="1" gradientUnits="objectBoundingBox">
    <stop offset="0%" stop-color="#f5f7fa"/><stop offset="100%" stop-color="#e8eef5"/>
  </linearGradient>
  <filter id="dropshadow">
    <feDropShadow dx="0" dy="6" stdDeviation="8" flood-color="rgba(26,42,58,0.18)"/>
  </filter>
</defs>
<rect width="800" height="600" fill="url(#softbg)"/>
<rect x="0" y="455" width="800" height="145" fill="#e8eef5"/>
<line x1="0" y1="455" x2="800" y2="455" stroke="#dce4ed" stroke-width="2"/>
<line x1="0" y1="475" x2="800" y2="475" stroke="rgba(26,42,58,0.04)" stroke-width="1"/><line x1="0" y1="505" x2="800" y2="505" stroke="rgba(26,42,58,0.04)" stroke-width="1"/><line x1="0" y1="535" x2="800" y2="535" stroke="rgba(26,42,58,0.04)" stroke-width="1"/><line x1="0" y1="565" x2="800" y2="565" stroke="rgba(26,42,58,0.04)" stroke-width="1"/><line x1="0" y1="595" x2="800" y2="595" stroke="rgba(26,42,58,0.04)" stroke-width="1"/><line x1="0" y1="625" x2="800" y2="625" stroke="rgba(26,42,58,0.04)" stroke-width="1"/><line x1="0" y1="455" x2="0" y2="600" stroke="rgba(26,42,58,0.04)" stroke-width="1"/><line x1="80" y1="455" x2="80" y2="600" stroke="rgba(26,42,58,0.04)" stroke-width="1"/><line x1="160" y1="455" x2="160" y2="600" stroke="rgba(26,42,58,0.04)" stroke-width="1"/><line x1="240" y1="455" x2="240" y2="600" stroke="rgba(26,42,58,0.04)" stroke-width="1"/><line x1="320" y1="455" x2="320" y2="600" stroke="rgba(26,42,58,0.04)" stroke-width="1"/><line x1="400" y1="455" x2="400" y2="600" stroke="rgba(26,42,58,0.04)" stroke-width="1"/><line x1="480" y1="455" x2="480" y2="600" stroke="rgba(26,42,58,0.04)" stroke-width="1"/><line x1="560" y1="455" x2="560" y2="600" stroke="rgba(26,42,58,0.04)" stroke-width="1"/><line x1="640" y1="455" x2="640" y2="600" stroke="rgba(26,42,58,0.04)" stroke-width="1"/><line x1="720" y1="455" x2="720" y2="600" stroke="rgba(26,42,58,0.04)" stroke-width="1"/><line x1="800" y1="455" x2="800" y2="600" stroke="rgba(26,42,58,0.04)" stroke-width="1"/>
<ellipse cx="400" cy="461" rx="158" ry="10" fill="rgba(26,42,58,0.09)"/>
<rect x="270" y="134" width="175" height="26" rx="3"
        fill="rgba(232,92,48,0.15)" stroke="rgba(232,92,48,0.45)" stroke-width="1.5"/>
      <text x="357" y="151" font-family="Arial,sans-serif" font-size="10" font-weight="900"
        fill="#e85c30" text-anchor="middle" letter-spacing="1">🌡 HOT WATER — 155°C</text>
<!-- main unit body -->
<rect x="250" y="168" width="290" height="295" rx="14" fill="url(#navy)" filter="url(#dropshadow)"/>
<rect x="250" y="168" width="290" height="7" rx="2" fill="url(#gold)"/>
<!-- top motor section -->
<rect x="262" y="182" width="266" height="105" rx="6" fill="rgba(0,0,0,0.13)"/>
<!-- pressure gauge -->
<circle cx="348" cy="234" r="40" fill="rgba(0,0,0,0.2)" stroke="rgba(201,168,76,0.35)" stroke-width="2"/>
<circle cx="348" cy="234" r="32" fill="#1a2a3a"/>
<!-- gauge ticks -->
<line x1="323" y1="220" x2="327" y2="222" stroke="rgba(255,255,255,0.28)" stroke-width="1.5"/><line x1="334" y1="209" x2="336" y2="213" stroke="rgba(255,255,255,0.28)" stroke-width="1.5"/><line x1="348" y1="204" x2="348" y2="209" stroke="rgba(255,255,255,0.28)" stroke-width="1.5"/><line x1="363" y1="209" x2="360" y2="213" stroke="rgba(255,255,255,0.28)" stroke-width="1.5"/><line x1="373" y1="220" x2="369" y2="222" stroke="rgba(255,255,255,0.28)" stroke-width="1.5"/><line x1="378" y1="234" x2="373" y2="234" stroke="rgba(255,255,255,0.28)" stroke-width="1.5"/><line x1="373" y1="248" x2="369" y2="246" stroke="rgba(255,255,255,0.28)" stroke-width="1.5"/><line x1="363" y1="259" x2="360" y2="255" stroke="rgba(255,255,255,0.28)" stroke-width="1.5"/><line x1="348" y1="264" x2="348" y2="259" stroke="rgba(255,255,255,0.28)" stroke-width="1.5"/>
<!-- needle -->
<line x1="348" y1="234" x2="366" y2="216" stroke="#c9a84c" stroke-width="2.5"/>
<circle cx="348" cy="234" r="4" fill="#c9a84c"/>
<text x="348" y="270" font-family="Arial,sans-serif" font-size="7" fill="rgba(201,168,76,0.5)" text-anchor="middle" letter-spacing="1">BAR</text>
<!-- power switch -->
<circle cx="455" cy="220" r="30" fill="rgba(0,0,0,0.2)" stroke="rgba(201,168,76,0.32)" stroke-width="1.5"/>
<circle cx="455" cy="220" r="22" fill="#1a2a3a" stroke="#22c55e" stroke-width="2.5"/>
<line x1="455" y1="202" x2="455" y2="218" stroke="#22c55e" stroke-width="3"/>
<!-- LED indicators -->
<circle cx="276" cy="192" r="6" fill="#22c55e" opacity="0.9"/>
<circle cx="294" cy="192" r="6" fill="#c9a84c" opacity="0.75"/>
<!-- hose reel section -->
<rect x="262" y="298" width="266" height="110" rx="4" fill="rgba(255,255,255,0.04)" stroke="rgba(201,168,76,0.13)" stroke-width="1"/>
<text x="395" y="318" font-family="Arial,sans-serif" font-size="8" fill="rgba(201,168,76,0.45)" text-anchor="middle" letter-spacing="2">HOSE REEL</text>
<!-- coiled hose -->
<circle cx="370" cy="355" r="36" fill="none" stroke="#c9a84c" stroke-width="5" stroke-dasharray="8 5" opacity="0.48"/>
<circle cx="370" cy="355" r="22" fill="none" stroke="#c9a84c" stroke-width="3" stroke-dasharray="6 5" opacity="0.38"/>
<circle cx="370" cy="355" r="10" fill="none" stroke="#c9a84c" stroke-width="2" opacity="0.35"/>
<!-- outlet ports -->
<rect x="454" y="318" width="62" height="48" rx="4" fill="rgba(0,0,0,0.14)"/>
<circle cx="474" cy="334" r="8" fill="rgba(201,168,76,0.28)" stroke="rgba(201,168,76,0.5)" stroke-width="1"/>
<circle cx="500" cy="334" r="8" fill="rgba(201,168,76,0.18)" stroke="rgba(201,168,76,0.4)" stroke-width="1"/>
<circle cx="487" cy="354" r="9" fill="#1a2a3a" stroke="#c9a84c" stroke-width="2"/>
<!-- brand badge -->

<rect x="325" y="414" width="140" height="36" rx="3"
  fill="rgba(201,168,76,0.1)" stroke="rgba(201,168,76,0.45)" stroke-width="1.5"/>
<text x="395" y="436" font-family="Arial,sans-serif" font-size="11"
  font-weight="900" fill="#c9a84c" text-anchor="middle" letter-spacing="2">CLEANPRO</text>
<text x="395" y="448" font-family="Arial,sans-serif" font-size="8"
  fill="rgba(201,168,76,0.55)" text-anchor="middle" letter-spacing="1">PW-STEAM</text>
<!-- high pressure wand (leaning right) -->
<rect x="574" y="180" width="14" height="240" rx="7" fill="#243547" stroke="rgba(201,168,76,0.32)" stroke-width="1"/>
<rect x="560" y="348" width="62" height="10" rx="5" fill="#243547" stroke="rgba(201,168,76,0.3)" stroke-width="1"/>
<circle cx="558" cy="352" r="8" fill="#1a2a3a" stroke="#c9a84c" stroke-width="2"/>
<!-- spray lines from nozzle -->
<line x1="556" y1="352" x2="516" y2="396" stroke="rgba(100,185,255,0.42)" stroke-width="2"/>
<line x1="556" y1="352" x2="510" y2="408" stroke="rgba(100,185,255,0.30)" stroke-width="1.5"/>
<line x1="556" y1="352" x2="524" y2="412" stroke="rgba(100,185,255,0.22)" stroke-width="1"/>
<!-- water puddle on floor -->
<ellipse cx="516" cy="458" rx="32" ry="5" fill="rgba(100,185,255,0.14)"/>
<!-- wheels/casters -->

<circle cx="300" cy="455" r="18" fill="#1a2a3a" stroke="#c9a84c" stroke-width="2.5"/>
<circle cx="300" cy="455" r="10" fill="#243547"/>
<circle cx="300" cy="455" r="3" fill="#c9a84c"/>
<line x1="300" y1="455" x2="310" y2="455" stroke="rgba(201,168,76,0.5)" stroke-width="2"/><line x1="300" y1="455" x2="290" y2="455" stroke="rgba(201,168,76,0.5)" stroke-width="2"/><line x1="300" y1="455" x2="300" y2="465" stroke="rgba(201,168,76,0.5)" stroke-width="2"/><line x1="300" y1="455" x2="300" y2="445" stroke="rgba(201,168,76,0.5)" stroke-width="2"/><line x1="300" y1="455" x2="307" y2="462" stroke="rgba(201,168,76,0.5)" stroke-width="2"/><line x1="300" y1="455" x2="293" y2="448" stroke="rgba(201,168,76,0.5)" stroke-width="2"/><line x1="300" y1="455" x2="293" y2="462" stroke="rgba(201,168,76,0.5)" stroke-width="2"/><line x1="300" y1="455" x2="307" y2="448" stroke="rgba(201,168,76,0.5)" stroke-width="2"/>

<circle cx="500" cy="455" r="18" fill="#1a2a3a" stroke="#c9a84c" stroke-width="2.5"/>
<circle cx="500" cy="455" r="10" fill="#243547"/>
<circle cx="500" cy="455" r="3" fill="#c9a84c"/>
<line x1="500" y1="455" x2="510" y2="455" stroke="rgba(201,168,76,0.5)" stroke-width="2"/><line x1="500" y1="455" x2="490" y2="455" stroke="rgba(201,168,76,0.5)" stroke-width="2"/><line x1="500" y1="455" x2="500" y2="465" stroke="rgba(201,168,76,0.5)" stroke-width="2"/><line x1="500" y1="455" x2="500" y2="445" stroke="rgba(201,168,76,0.5)" stroke-width="2"/><line x1="500" y1="455" x2="507" y2="462" stroke="rgba(201,168,76,0.5)" stroke-width="2"/><line x1="500" y1="455" x2="493" y2="448" stroke="rgba(201,168,76,0.5)" stroke-width="2"/><line x1="500" y1="455" x2="493" y2="462" stroke="rgba(201,168,76,0.5)" stroke-width="2"/><line x1="500" y1="455" x2="507" y2="448" stroke="rgba(201,168,76,0.5)" stroke-width="2"/>
<text x="400" y="590" font-family="Arial,sans-serif" font-size="9" fill="rgba(26,42,58,0.18)" text-anchor="middle" letter-spacing="1">© CLEANPRO COMMERCIAL CLEANING EQUIPMENT — PW-STEAM</text>
</svg>