<svg xmlns="http://www.w3.org/2000/svg" viewBox="0 0 800 600" width="800" height="600">
<defs>
  <linearGradient id="bg" x1="0" y1="0" x2="0" y2="1" gradientUnits="objectBoundingBox">
    <stop offset="0%" stop-color="#f5f7fa"/><stop offset="100%" stop-color="#e8ecf2"/>
  </linearGradient>
  <linearGradient id="navy" x1="0" y1="0" x2="0" y2="1" gradientUnits="objectBoundingBox">
    <stop offset="0%" stop-color="#243547"/><stop offset="100%" stop-color="#1a2a3a"/>
  </linearGradient>
</defs>
<rect width="800" height="600" fill="url(#bg)"/>
<rect x="0" y="0" width="800" height="4" fill="#00AEEF"/><rect x="0" y="440" width="800" height="160" fill="#e8ecf2"/><line x1="0" y1="440" x2="800" y2="440" stroke="#dce4ed" stroke-width="2"/><line x1="0" y1="460" x2="800" y2="460" stroke="rgba(26,42,58,0.04)" stroke-width="1"/><line x1="0" y1="490" x2="800" y2="490" stroke="rgba(26,42,58,0.04)" stroke-width="1"/><line x1="0" y1="520" x2="800" y2="520" stroke="rgba(26,42,58,0.04)" stroke-width="1"/><line x1="0" y1="550" x2="800" y2="550" stroke="rgba(26,42,58,0.04)" stroke-width="1"/><line x1="0" y1="580" x2="800" y2="580" stroke="rgba(26,42,58,0.04)" stroke-width="1"/><line x1="0" y1="610" x2="800" y2="610" stroke="rgba(26,42,58,0.04)" stroke-width="1"/><line x1="0" y1="440" x2="0" y2="600" stroke="rgba(26,42,58,0.04)" stroke-width="1"/><line x1="80" y1="440" x2="80" y2="600" stroke="rgba(26,42,58,0.04)" stroke-width="1"/><line x1="160" y1="440" x2="160" y2="600" stroke="rgba(26,42,58,0.04)" stroke-width="1"/><line x1="240" y1="440" x2="240" y2="600" stroke="rgba(26,42,58,0.04)" stroke-width="1"/><line x1="320" y1="440" x2="320" y2="600" stroke="rgba(26,42,58,0.04)" stroke-width="1"/><line x1="400" y1="440" x2="400" y2="600" stroke="rgba(26,42,58,0.04)" stroke-width="1"/><line x1="480" y1="440" x2="480" y2="600" stroke="rgba(26,42,58,0.04)" stroke-width="1"/><line x1="560" y1="440" x2="560" y2="600" stroke="rgba(26,42,58,0.04)" stroke-width="1"/><line x1="640" y1="440" x2="640" y2="600" stroke="rgba(26,42,58,0.04)" stroke-width="1"/><line x1="720" y1="440" x2="720" y2="600" stroke="rgba(26,42,58,0.04)" stroke-width="1"/><line x1="800" y1="440" x2="800" y2="600" stroke="rgba(26,42,58,0.04)" stroke-width="1"/><ellipse cx="400" cy="446" rx="165" ry="11" fill="rgba(26,42,58,0.10)"/>
<!-- robot body - disc shape -->
<ellipse cx="400" cy="310" rx="180" ry="150" fill="url(#navy)"/>
<ellipse cx="400" cy="310" rx="180" ry="150" fill="none" stroke="#00AEEF" stroke-width="2"/>
<!-- top surface -->
<ellipse cx="400" cy="260" rx="175" ry="48" fill="#243547"/>
<ellipse cx="400" cy="260" rx="175" ry="48" fill="none" stroke="#00AEEF" stroke-width="1.5"/>
<!-- LiDAR sensor -->
<circle cx="400" cy="238" r="22" fill="#1a2a3a" stroke="#00AEEF" stroke-width="2"/>
<circle cx="400" cy="238" r="12" fill="#00AEEF" opacity="0.85"/>
<circle cx="400" cy="238" r="5" fill="#1a2a3a"/>
<!-- scan rings -->
<circle cx="400" cy="238" r="35" fill="none" stroke="#00AEEF" stroke-width="0.8" opacity="0.18" stroke-dasharray="4 4"/><circle cx="400" cy="238" r="53" fill="none" stroke="#00AEEF" stroke-width="0.8" opacity="0.13999999999999999" stroke-dasharray="4 4"/><circle cx="400" cy="238" r="71" fill="none" stroke="#00AEEF" stroke-width="0.8" opacity="0.09999999999999999" stroke-dasharray="4 4"/><circle cx="400" cy="238" r="89" fill="none" stroke="#00AEEF" stroke-width="0.8" opacity="0.06" stroke-dasharray="4 4"/><circle cx="400" cy="238" r="107" fill="none" stroke="#00AEEF" stroke-width="0.8" opacity="0.01999999999999999" stroke-dasharray="4 4"/>
<!-- status lights -->
<circle cx="328" cy="258" r="6" fill="#22c55e" opacity="0.9"/>
<circle cx="352" cy="252" r="5" fill="#00AEEF" opacity="0.7"/>
<!-- charging dock connector -->
<rect x="352" y="390" width="96" height="18" rx="5" fill="#243547" stroke="#00AEEF" stroke-width="1"/>
<!-- side brushes -->
<circle cx="248" cy="400" rx="1" r="32" fill="#1a2a3a" stroke="#00AEEF" stroke-width="1.5" opacity="0.85"/>
<line x1="248" y1="400" x2="278" y2="400" stroke="#00AEEF" stroke-width="3" opacity="0.5"/><line x1="248" y1="400" x2="273" y2="414" stroke="#00AEEF" stroke-width="3" opacity="0.5"/><line x1="248" y1="400" x2="263" y2="425" stroke="#00AEEF" stroke-width="3" opacity="0.5"/><line x1="248" y1="400" x2="248" y2="430" stroke="#00AEEF" stroke-width="3" opacity="0.5"/><line x1="248" y1="400" x2="234" y2="425" stroke="#00AEEF" stroke-width="3" opacity="0.5"/><line x1="248" y1="400" x2="223" y2="414" stroke="#00AEEF" stroke-width="3" opacity="0.5"/><line x1="248" y1="400" x2="218" y2="400" stroke="#00AEEF" stroke-width="3" opacity="0.5"/><line x1="248" y1="400" x2="223" y2="385" stroke="#00AEEF" stroke-width="3" opacity="0.5"/><line x1="248" y1="400" x2="233" y2="375" stroke="#00AEEF" stroke-width="3" opacity="0.5"/><line x1="248" y1="400" x2="248" y2="370" stroke="#00AEEF" stroke-width="3" opacity="0.5"/><line x1="248" y1="400" x2="263" y2="375" stroke="#00AEEF" stroke-width="3" opacity="0.5"/><line x1="248" y1="400" x2="273" y2="385" stroke="#00AEEF" stroke-width="3" opacity="0.5"/>
<circle cx="248" cy="400" r="7" fill="#00AEEF"/>
<circle cx="552" cy="400" r="32" fill="#1a2a3a" stroke="#00AEEF" stroke-width="1.5" opacity="0.85"/>
<line x1="552" y1="400" x2="582" y2="400" stroke="#00AEEF" stroke-width="3" opacity="0.5"/><line x1="552" y1="400" x2="577" y2="414" stroke="#00AEEF" stroke-width="3" opacity="0.5"/><line x1="552" y1="400" x2="567" y2="425" stroke="#00AEEF" stroke-width="3" opacity="0.5"/><line x1="552" y1="400" x2="552" y2="430" stroke="#00AEEF" stroke-width="3" opacity="0.5"/><line x1="552" y1="400" x2="538" y2="425" stroke="#00AEEF" stroke-width="3" opacity="0.5"/><line x1="552" y1="400" x2="527" y2="414" stroke="#00AEEF" stroke-width="3" opacity="0.5"/><line x1="552" y1="400" x2="522" y2="400" stroke="#00AEEF" stroke-width="3" opacity="0.5"/><line x1="552" y1="400" x2="527" y2="385" stroke="#00AEEF" stroke-width="3" opacity="0.5"/><line x1="552" y1="400" x2="537" y2="375" stroke="#00AEEF" stroke-width="3" opacity="0.5"/><line x1="552" y1="400" x2="552" y2="370" stroke="#00AEEF" stroke-width="3" opacity="0.5"/><line x1="552" y1="400" x2="567" y2="375" stroke="#00AEEF" stroke-width="3" opacity="0.5"/><line x1="552" y1="400" x2="577" y2="385" stroke="#00AEEF" stroke-width="3" opacity="0.5"/>
<circle cx="552" cy="400" r="7" fill="#00AEEF"/>
<!-- drive wheels -->
<rect x="232" y="430" width="56" height="18" rx="8" fill="#1a2a3a" stroke="#00AEEF" stroke-width="1.5"/>
<rect x="512" y="430" width="56" height="18" rx="8" fill="#1a2a3a" stroke="#00AEEF" stroke-width="1.5"/>
<rect x="340" y="276" width="120" height="28" rx="3" fill="rgba(0,174,239,0.10)" stroke="#00AEEF" stroke-width="1"/><text x="400" y="295" font-family="Arial,sans-serif" font-size="11" font-weight="700" fill="#00AEEF" text-anchor="middle" letter-spacing="1">ELVONIS RS-SC200</text>
<text x="400" y="590" font-family="Arial,sans-serif" font-size="9" fill="rgba(26,42,58,0.2)" text-anchor="middle" letter-spacing="1">ELVONIS — RS-SC200</text>
</svg>