<svg xmlns="http://www.w3.org/2000/svg" viewBox="0 0 800 600" width="800" height="600">
<defs>
  <linearGradient id="navy" x1="0" y1="0" x2="0" y2="1" gradientUnits="objectBoundingBox">
    <stop offset="0%" stop-color="#243547"/><stop offset="100%" stop-color="#1a2a3a"/>
  </linearGradient>
  <linearGradient id="gold" x1="0" y1="0" x2="1" y2="0" gradientUnits="objectBoundingBox">
    <stop offset="0%" stop-color="#c9a84c"/><stop offset="100%" stop-color="#f0d98a"/>
  </linearGradient>
  <linearGradient id="softbg" x1="0" y1="0" x2="0" y2="1" gradientUnits="objectBoundingBox">
    <stop offset="0%" stop-color="#f5f7fa"/><stop offset="100%" stop-color="#e8eef5"/>
  </linearGradient>
  <filter id="dropshadow">
    <feDropShadow dx="0" dy="6" stdDeviation="8" flood-color="rgba(26,42,58,0.18)"/>
  </filter>
</defs>
<rect width="800" height="600" fill="url(#softbg)"/>
<rect x="0" y="430" width="800" height="170" fill="#e8eef5"/>
<line x1="0" y1="430" x2="800" y2="430" stroke="#dce4ed" stroke-width="2"/>
<line x1="0" y1="450" x2="800" y2="450" stroke="rgba(26,42,58,0.04)" stroke-width="1"/><line x1="0" y1="480" x2="800" y2="480" stroke="rgba(26,42,58,0.04)" stroke-width="1"/><line x1="0" y1="510" x2="800" y2="510" stroke="rgba(26,42,58,0.04)" stroke-width="1"/><line x1="0" y1="540" x2="800" y2="540" stroke="rgba(26,42,58,0.04)" stroke-width="1"/><line x1="0" y1="570" x2="800" y2="570" stroke="rgba(26,42,58,0.04)" stroke-width="1"/><line x1="0" y1="600" x2="800" y2="600" stroke="rgba(26,42,58,0.04)" stroke-width="1"/><line x1="0" y1="430" x2="0" y2="600" stroke="rgba(26,42,58,0.04)" stroke-width="1"/><line x1="80" y1="430" x2="80" y2="600" stroke="rgba(26,42,58,0.04)" stroke-width="1"/><line x1="160" y1="430" x2="160" y2="600" stroke="rgba(26,42,58,0.04)" stroke-width="1"/><line x1="240" y1="430" x2="240" y2="600" stroke="rgba(26,42,58,0.04)" stroke-width="1"/><line x1="320" y1="430" x2="320" y2="600" stroke="rgba(26,42,58,0.04)" stroke-width="1"/><line x1="400" y1="430" x2="400" y2="600" stroke="rgba(26,42,58,0.04)" stroke-width="1"/><line x1="480" y1="430" x2="480" y2="600" stroke="rgba(26,42,58,0.04)" stroke-width="1"/><line x1="560" y1="430" x2="560" y2="600" stroke="rgba(26,42,58,0.04)" stroke-width="1"/><line x1="640" y1="430" x2="640" y2="600" stroke="rgba(26,42,58,0.04)" stroke-width="1"/><line x1="720" y1="430" x2="720" y2="600" stroke="rgba(26,42,58,0.04)" stroke-width="1"/><line x1="800" y1="430" x2="800" y2="600" stroke="rgba(26,42,58,0.04)" stroke-width="1"/>
<!-- machine shadow -->
<ellipse cx="400" cy="437" rx="215" ry="12" fill="rgba(26,42,58,0.12)"/>
<!-- main body -->
<rect x="190" y="195" width="420" height="240" rx="14" fill="url(#navy)" filter="url(#dropshadow)"/>
<!-- gold top stripe -->
<rect x="190" y="195" width="420" height="7" rx="2" fill="url(#gold)"/>
<!-- operator cab -->
<rect x="255" y="110" width="210" height="100" rx="10" fill="#243547"/>
<rect x="255" y="104" width="210" height="8" rx="4" fill="url(#gold)"/>
<!-- windshield -->
<rect x="273" y="120" width="174" height="68" rx="5" fill="rgba(120,185,240,0.16)" stroke="rgba(120,185,240,0.38)" stroke-width="1.5"/>
<line x1="290" y1="124" x2="302" y2="184" stroke="rgba(255,255,255,0.18)" stroke-width="2"/>
<!-- seat -->
<rect x="305" y="155" width="100" height="32" rx="6" fill="#1a2a3a"/>
<rect x="313" y="148" width="84" height="14" rx="4" fill="#1a2a3a"/>
<!-- left control panel -->
<rect x="200" y="214" width="88" height="160" rx="4" fill="rgba(0,0,0,0.14)"/>
<circle cx="228" cy="240" r="9" fill="#c9a84c" opacity="0.95"/>
<circle cx="255" cy="240" r="9" fill="#22c55e" opacity="0.9"/>
<rect x="214" y="260" width="60" height="5" rx="2" fill="rgba(201,168,76,0.42)"/>
<rect x="214" y="272" width="46" height="3" rx="1" fill="rgba(255,255,255,0.13)"/>
<rect x="214" y="280" width="54" height="3" rx="1" fill="rgba(255,255,255,0.11)"/>
<circle cx="240" cy="304" r="20" fill="rgba(0,0,0,0.2)" stroke="rgba(201,168,76,0.3)" stroke-width="1"/>
<line x1="240" y1="287" x2="244" y2="304" stroke="#c9a84c" stroke-width="2.5"/>
<circle cx="244" cy="304" r="3" fill="#c9a84c"/>
<!-- water tank section -->
<rect x="302" y="212" width="175" height="135" rx="5" fill="rgba(255,255,255,0.05)" stroke="rgba(201,168,76,0.15)" stroke-width="1"/>
<rect x="312" y="220" width="155" height="5" rx="2" fill="rgba(201,168,76,0.5)"/>
<!-- water level window -->
<rect x="313" y="232" width="28" height="90" rx="2" fill="rgba(100,165,225,0.10)" stroke="rgba(100,165,225,0.28)" stroke-width="1"/>
<rect x="315" y="275" width="24" height="47" rx="1" fill="rgba(100,165,225,0.28)"/>
<text x="327" y="270" font-family="Arial,sans-serif" font-size="7" fill="rgba(255,255,255,0.4)" text-anchor="middle">L</text>
<!-- vent slots -->
<rect x="355" y="232" width="110" height="4" rx="1" fill="rgba(255,255,255,0.08)"/>
<rect x="355" y="242" width="110" height="4" rx="1" fill="rgba(255,255,255,0.08)"/>
<rect x="355" y="252" width="110" height="4" rx="1" fill="rgba(255,255,255,0.08)"/>
<rect x="355" y="262" width="95" height="4" rx="1" fill="rgba(255,255,255,0.08)"/>
<rect x="355" y="272" width="102" height="4" rx="1" fill="rgba(255,255,255,0.08)"/>
<!-- right vented panel -->
<rect x="490" y="214" width="108" height="160" rx="4" fill="rgba(0,0,0,0.1)"/>
<rect x="500" y="225" width="88" height="4" rx="1" fill="rgba(255,255,255,0.07)"/>
<rect x="500" y="235" width="88" height="4" rx="1" fill="rgba(255,255,255,0.07)"/>
<rect x="500" y="245" width="88" height="4" rx="1" fill="rgba(255,255,255,0.07)"/>
<rect x="500" y="255" width="70" height="4" rx="1" fill="rgba(255,255,255,0.07)"/>
<rect x="500" y="265" width="80" height="4" rx="1" fill="rgba(255,255,255,0.07)"/>
<rect x="500" y="275" width="60" height="4" rx="1" fill="rgba(255,255,255,0.07)"/>
<!-- brand badge -->

<rect x="330" y="337" width="140" height="36" rx="3"
  fill="rgba(201,168,76,0.1)" stroke="rgba(201,168,76,0.45)" stroke-width="1.5"/>
<text x="400" y="359" font-family="Arial,sans-serif" font-size="11"
  font-weight="900" fill="#c9a84c" text-anchor="middle" letter-spacing="2">CLEANPRO</text>
<text x="400" y="371" font-family="Arial,sans-serif" font-size="8"
  fill="rgba(201,168,76,0.55)" text-anchor="middle" letter-spacing="1">SC-R65-LI</text>
<!-- brush deck -->
<ellipse cx="400" cy="450" rx="215" ry="20" fill="#243547" stroke="#c9a84c" stroke-width="2"/>
<ellipse cx="400" cy="448" rx="195" ry="11" fill="#1a2a3a"/>
<line x1="200" y1="456" x2="200" y2="466" stroke="rgba(201,168,76,0.55)" stroke-width="2.5"/><line x1="219" y1="456" x2="219" y2="466" stroke="rgba(201,168,76,0.55)" stroke-width="2.5"/><line x1="238" y1="456" x2="238" y2="466" stroke="rgba(201,168,76,0.55)" stroke-width="2.5"/><line x1="257" y1="456" x2="257" y2="466" stroke="rgba(201,168,76,0.55)" stroke-width="2.5"/><line x1="276" y1="456" x2="276" y2="466" stroke="rgba(201,168,76,0.55)" stroke-width="2.5"/><line x1="295" y1="456" x2="295" y2="466" stroke="rgba(201,168,76,0.55)" stroke-width="2.5"/><line x1="314" y1="456" x2="314" y2="466" stroke="rgba(201,168,76,0.55)" stroke-width="2.5"/><line x1="333" y1="456" x2="333" y2="466" stroke="rgba(201,168,76,0.55)" stroke-width="2.5"/><line x1="352" y1="456" x2="352" y2="466" stroke="rgba(201,168,76,0.55)" stroke-width="2.5"/><line x1="371" y1="456" x2="371" y2="466" stroke="rgba(201,168,76,0.55)" stroke-width="2.5"/><line x1="390" y1="456" x2="390" y2="466" stroke="rgba(201,168,76,0.55)" stroke-width="2.5"/><line x1="409" y1="456" x2="409" y2="466" stroke="rgba(201,168,76,0.55)" stroke-width="2.5"/><line x1="428" y1="456" x2="428" y2="466" stroke="rgba(201,168,76,0.55)" stroke-width="2.5"/><line x1="447" y1="456" x2="447" y2="466" stroke="rgba(201,168,76,0.55)" stroke-width="2.5"/><line x1="466" y1="456" x2="466" y2="466" stroke="rgba(201,168,76,0.55)" stroke-width="2.5"/><line x1="485" y1="456" x2="485" y2="466" stroke="rgba(201,168,76,0.55)" stroke-width="2.5"/><line x1="504" y1="456" x2="504" y2="466" stroke="rgba(201,168,76,0.55)" stroke-width="2.5"/><line x1="523" y1="456" x2="523" y2="466" stroke="rgba(201,168,76,0.55)" stroke-width="2.5"/><line x1="542" y1="456" x2="542" y2="466" stroke="rgba(201,168,76,0.55)" stroke-width="2.5"/><line x1="561" y1="456" x2="561" y2="466" stroke="rgba(201,168,76,0.55)" stroke-width="2.5"/><line x1="580" y1="456" x2="580" y2="466" stroke="rgba(201,168,76,0.55)" stroke-width="2.5"/><line x1="600" y1="456" x2="600" y2="466" stroke="rgba(201,168,76,0.55)" stroke-width="2.5"/>
<!-- squeegee bar -->
<rect x="182" y="456" width="436" height="7" rx="3" fill="#c9a84c" opacity="0.52"/>
<!-- wheels -->

<circle cx="245" cy="426" r="32" fill="#1a2a3a" stroke="#c9a84c" stroke-width="2.5"/>
<circle cx="245" cy="426" r="20" fill="#243547"/>
<circle cx="245" cy="426" r="5" fill="#c9a84c"/>
<line x1="245" y1="426" x2="265" y2="426" stroke="rgba(201,168,76,0.5)" stroke-width="2"/><line x1="245" y1="426" x2="225" y2="426" stroke="rgba(201,168,76,0.5)" stroke-width="2"/><line x1="245" y1="426" x2="245" y2="446" stroke="rgba(201,168,76,0.5)" stroke-width="2"/><line x1="245" y1="426" x2="245" y2="406" stroke="rgba(201,168,76,0.5)" stroke-width="2"/><line x1="245" y1="426" x2="259" y2="440" stroke="rgba(201,168,76,0.5)" stroke-width="2"/><line x1="245" y1="426" x2="231" y2="412" stroke="rgba(201,168,76,0.5)" stroke-width="2"/><line x1="245" y1="426" x2="231" y2="440" stroke="rgba(201,168,76,0.5)" stroke-width="2"/><line x1="245" y1="426" x2="259" y2="412" stroke="rgba(201,168,76,0.5)" stroke-width="2"/>

<circle cx="555" cy="426" r="32" fill="#1a2a3a" stroke="#c9a84c" stroke-width="2.5"/>
<circle cx="555" cy="426" r="20" fill="#243547"/>
<circle cx="555" cy="426" r="5" fill="#c9a84c"/>
<line x1="555" y1="426" x2="575" y2="426" stroke="rgba(201,168,76,0.5)" stroke-width="2"/><line x1="555" y1="426" x2="535" y2="426" stroke="rgba(201,168,76,0.5)" stroke-width="2"/><line x1="555" y1="426" x2="555" y2="446" stroke="rgba(201,168,76,0.5)" stroke-width="2"/><line x1="555" y1="426" x2="555" y2="406" stroke="rgba(201,168,76,0.5)" stroke-width="2"/><line x1="555" y1="426" x2="569" y2="440" stroke="rgba(201,168,76,0.5)" stroke-width="2"/><line x1="555" y1="426" x2="541" y2="412" stroke="rgba(201,168,76,0.5)" stroke-width="2"/><line x1="555" y1="426" x2="541" y2="440" stroke="rgba(201,168,76,0.5)" stroke-width="2"/><line x1="555" y1="426" x2="569" y2="412" stroke="rgba(201,168,76,0.5)" stroke-width="2"/>
<!-- water spray glow -->
<ellipse cx="400" cy="463" rx="210" ry="5" fill="rgba(100,180,255,0.07)"/>
<text x="400" y="590" font-family="Arial,sans-serif" font-size="9" fill="rgba(26,42,58,0.18)" text-anchor="middle" letter-spacing="1">© CLEANPRO COMMERCIAL CLEANING EQUIPMENT — SC-R65-LI</text>
</svg>