<svg xmlns="http://www.w3.org/2000/svg" viewBox="0 0 800 600" width="800" height="600">
<defs>
  <linearGradient id="navy" x1="0" y1="0" x2="0" y2="1" gradientUnits="objectBoundingBox">
    <stop offset="0%" stop-color="#243547"/><stop offset="100%" stop-color="#1a2a3a"/>
  </linearGradient>
  <linearGradient id="gold" x1="0" y1="0" x2="1" y2="0" gradientUnits="objectBoundingBox">
    <stop offset="0%" stop-color="#c9a84c"/><stop offset="100%" stop-color="#f0d98a"/>
  </linearGradient>
  <linearGradient id="softbg" x1="0" y1="0" x2="0" y2="1" gradientUnits="objectBoundingBox">
    <stop offset="0%" stop-color="#f5f7fa"/><stop offset="100%" stop-color="#e8eef5"/>
  </linearGradient>
  <filter id="dropshadow">
    <feDropShadow dx="0" dy="6" stdDeviation="8" flood-color="rgba(26,42,58,0.18)"/>
  </filter>
</defs>
<rect width="800" height="600" fill="url(#softbg)"/>
<rect x="0" y="445" width="800" height="155" fill="#e8eef5"/>
<line x1="0" y1="445" x2="800" y2="445" stroke="#dce4ed" stroke-width="2"/>
<line x1="0" y1="465" x2="800" y2="465" stroke="rgba(26,42,58,0.04)" stroke-width="1"/><line x1="0" y1="495" x2="800" y2="495" stroke="rgba(26,42,58,0.04)" stroke-width="1"/><line x1="0" y1="525" x2="800" y2="525" stroke="rgba(26,42,58,0.04)" stroke-width="1"/><line x1="0" y1="555" x2="800" y2="555" stroke="rgba(26,42,58,0.04)" stroke-width="1"/><line x1="0" y1="585" x2="800" y2="585" stroke="rgba(26,42,58,0.04)" stroke-width="1"/><line x1="0" y1="615" x2="800" y2="615" stroke="rgba(26,42,58,0.04)" stroke-width="1"/><line x1="0" y1="445" x2="0" y2="600" stroke="rgba(26,42,58,0.04)" stroke-width="1"/><line x1="80" y1="445" x2="80" y2="600" stroke="rgba(26,42,58,0.04)" stroke-width="1"/><line x1="160" y1="445" x2="160" y2="600" stroke="rgba(26,42,58,0.04)" stroke-width="1"/><line x1="240" y1="445" x2="240" y2="600" stroke="rgba(26,42,58,0.04)" stroke-width="1"/><line x1="320" y1="445" x2="320" y2="600" stroke="rgba(26,42,58,0.04)" stroke-width="1"/><line x1="400" y1="445" x2="400" y2="600" stroke="rgba(26,42,58,0.04)" stroke-width="1"/><line x1="480" y1="445" x2="480" y2="600" stroke="rgba(26,42,58,0.04)" stroke-width="1"/><line x1="560" y1="445" x2="560" y2="600" stroke="rgba(26,42,58,0.04)" stroke-width="1"/><line x1="640" y1="445" x2="640" y2="600" stroke="rgba(26,42,58,0.04)" stroke-width="1"/><line x1="720" y1="445" x2="720" y2="600" stroke="rgba(26,42,58,0.04)" stroke-width="1"/><line x1="800" y1="445" x2="800" y2="600" stroke="rgba(26,42,58,0.04)" stroke-width="1"/>
<ellipse cx="400" cy="451" rx="148" ry="10" fill="rgba(26,42,58,0.10)"/>
<!-- handle bar -->
<rect x="360" y="82" width="80" height="14" rx="7" fill="#243547" stroke="#c9a84c" stroke-width="1.5"/>
<rect x="378" y="60" width="10" height="100" rx="5" fill="#243547"/>
<rect x="412" y="60" width="10" height="100" rx="5" fill="#243547"/>
<rect x="358" y="60" width="84" height="24" rx="6" fill="#1a2a3a"/>
<rect x="368" y="64" width="64" height="16" rx="5" fill="#243547" stroke="rgba(201,168,76,0.28)" stroke-width="1"/>
<!-- speed lever -->
<rect x="445" y="68" width="12" height="50" rx="5" fill="#243547" stroke="rgba(201,168,76,0.35)" stroke-width="1"/>
<rect x="440" y="64" width="22" height="10" rx="4" fill="#c9a84c" opacity="0.7"/>
<!-- machine body -->
<rect x="270" y="170" width="260" height="280" rx="12" fill="url(#navy)" filter="url(#dropshadow)"/>
<rect x="270" y="170" width="260" height="7" rx="2" fill="url(#gold)"/>
<!-- left control panel -->
<rect x="280" y="188" width="96" height="210" rx="4" fill="rgba(0,0,0,0.13)"/>
<circle cx="310" cy="215" r="9" fill="#c9a84c" opacity="0.95"/>
<circle cx="338" cy="215" r="9" fill="#22c55e" opacity="0.9"/>
<rect x="290" y="235" width="72" height="5" rx="2" fill="rgba(201,168,76,0.42)"/>
<rect x="290" y="248" width="58" height="3" rx="1" fill="rgba(255,255,255,0.12)"/>
<rect x="290" y="257" width="64" height="3" rx="1" fill="rgba(255,255,255,0.10)"/>
<!-- dial -->
<circle cx="322" cy="295" r="22" fill="rgba(0,0,0,0.2)" stroke="rgba(201,168,76,0.3)" stroke-width="1"/>
<circle cx="322" cy="295" r="14" fill="#1a2a3a"/>
<line x1="322" y1="277" x2="326" y2="295" stroke="#c9a84c" stroke-width="2"/>
<!-- water tank -->
<rect x="390" y="185" width="128" height="255" rx="4" fill="rgba(255,255,255,0.05)" stroke="rgba(201,168,76,0.14)" stroke-width="1"/>
<!-- level window -->
<rect x="398" y="200" width="28" height="120" rx="2" fill="rgba(100,165,225,0.10)" stroke="rgba(100,165,225,0.26)" stroke-width="1"/>
<rect x="400" y="265" width="24" height="55" rx="1" fill="rgba(100,165,225,0.26)"/>
<text x="412" y="262" font-family="Arial,sans-serif" font-size="7" fill="rgba(255,255,255,0.38)" text-anchor="middle">L</text>
<!-- vent slots -->
<rect x="438" y="200" width="72" height="4" rx="1" fill="rgba(255,255,255,0.08)"/>
<rect x="438" y="212" width="72" height="4" rx="1" fill="rgba(255,255,255,0.08)"/>
<rect x="438" y="224" width="72" height="4" rx="1" fill="rgba(255,255,255,0.08)"/>
<rect x="438" y="236" width="60" height="4" rx="1" fill="rgba(255,255,255,0.08)"/>
<rect x="438" y="248" width="68" height="4" rx="1" fill="rgba(255,255,255,0.08)"/>
<!-- brand badge -->

<rect x="330" y="342" width="140" height="36" rx="3"
  fill="rgba(201,168,76,0.1)" stroke="rgba(201,168,76,0.45)" stroke-width="1.5"/>
<text x="400" y="364" font-family="Arial,sans-serif" font-size="11"
  font-weight="900" fill="#c9a84c" text-anchor="middle" letter-spacing="2">CLEANPRO</text>
<text x="400" y="376" font-family="Arial,sans-serif" font-size="8"
  fill="rgba(201,168,76,0.55)" text-anchor="middle" letter-spacing="1">SC-W28</text>
<!-- brush deck -->
<ellipse cx="400" cy="462" rx="155" ry="18" fill="#243547" stroke="#c9a84c" stroke-width="2"/>
<ellipse cx="400" cy="460" rx="136" ry="10" fill="#1a2a3a"/>
<line x1="250" y1="467" x2="250" y2="477" stroke="rgba(201,168,76,0.55)" stroke-width="2.5"/><line x1="270" y1="467" x2="270" y2="477" stroke="rgba(201,168,76,0.55)" stroke-width="2.5"/><line x1="290" y1="467" x2="290" y2="477" stroke="rgba(201,168,76,0.55)" stroke-width="2.5"/><line x1="310" y1="467" x2="310" y2="477" stroke="rgba(201,168,76,0.55)" stroke-width="2.5"/><line x1="330" y1="467" x2="330" y2="477" stroke="rgba(201,168,76,0.55)" stroke-width="2.5"/><line x1="350" y1="467" x2="350" y2="477" stroke="rgba(201,168,76,0.55)" stroke-width="2.5"/><line x1="370" y1="467" x2="370" y2="477" stroke="rgba(201,168,76,0.55)" stroke-width="2.5"/><line x1="390" y1="467" x2="390" y2="477" stroke="rgba(201,168,76,0.55)" stroke-width="2.5"/><line x1="410" y1="467" x2="410" y2="477" stroke="rgba(201,168,76,0.55)" stroke-width="2.5"/><line x1="430" y1="467" x2="430" y2="477" stroke="rgba(201,168,76,0.55)" stroke-width="2.5"/><line x1="450" y1="467" x2="450" y2="477" stroke="rgba(201,168,76,0.55)" stroke-width="2.5"/><line x1="470" y1="467" x2="470" y2="477" stroke="rgba(201,168,76,0.55)" stroke-width="2.5"/><line x1="490" y1="467" x2="490" y2="477" stroke="rgba(201,168,76,0.55)" stroke-width="2.5"/><line x1="510" y1="467" x2="510" y2="477" stroke="rgba(201,168,76,0.55)" stroke-width="2.5"/><line x1="530" y1="467" x2="530" y2="477" stroke="rgba(201,168,76,0.55)" stroke-width="2.5"/><line x1="550" y1="467" x2="550" y2="477" stroke="rgba(201,168,76,0.55)" stroke-width="2.5"/>
<!-- squeegee -->
<rect x="242" y="466" width="316" height="6" rx="3" fill="#c9a84c" opacity="0.50"/>
<!-- wheels -->

<circle cx="300" cy="440" r="22" fill="#1a2a3a" stroke="#c9a84c" stroke-width="2.5"/>
<circle cx="300" cy="440" r="13" fill="#243547"/>
<circle cx="300" cy="440" r="4" fill="#c9a84c"/>
<line x1="300" y1="440" x2="313" y2="440" stroke="rgba(201,168,76,0.5)" stroke-width="2"/><line x1="300" y1="440" x2="287" y2="440" stroke="rgba(201,168,76,0.5)" stroke-width="2"/><line x1="300" y1="440" x2="300" y2="453" stroke="rgba(201,168,76,0.5)" stroke-width="2"/><line x1="300" y1="440" x2="300" y2="427" stroke="rgba(201,168,76,0.5)" stroke-width="2"/><line x1="300" y1="440" x2="309" y2="449" stroke="rgba(201,168,76,0.5)" stroke-width="2"/><line x1="300" y1="440" x2="291" y2="431" stroke="rgba(201,168,76,0.5)" stroke-width="2"/><line x1="300" y1="440" x2="291" y2="449" stroke="rgba(201,168,76,0.5)" stroke-width="2"/><line x1="300" y1="440" x2="309" y2="431" stroke="rgba(201,168,76,0.5)" stroke-width="2"/>

<circle cx="500" cy="440" r="22" fill="#1a2a3a" stroke="#c9a84c" stroke-width="2.5"/>
<circle cx="500" cy="440" r="13" fill="#243547"/>
<circle cx="500" cy="440" r="4" fill="#c9a84c"/>
<line x1="500" y1="440" x2="513" y2="440" stroke="rgba(201,168,76,0.5)" stroke-width="2"/><line x1="500" y1="440" x2="487" y2="440" stroke="rgba(201,168,76,0.5)" stroke-width="2"/><line x1="500" y1="440" x2="500" y2="453" stroke="rgba(201,168,76,0.5)" stroke-width="2"/><line x1="500" y1="440" x2="500" y2="427" stroke="rgba(201,168,76,0.5)" stroke-width="2"/><line x1="500" y1="440" x2="509" y2="449" stroke="rgba(201,168,76,0.5)" stroke-width="2"/><line x1="500" y1="440" x2="491" y2="431" stroke="rgba(201,168,76,0.5)" stroke-width="2"/><line x1="500" y1="440" x2="491" y2="449" stroke="rgba(201,168,76,0.5)" stroke-width="2"/><line x1="500" y1="440" x2="509" y2="431" stroke="rgba(201,168,76,0.5)" stroke-width="2"/>
<text x="400" y="590" font-family="Arial,sans-serif" font-size="9" fill="rgba(26,42,58,0.18)" text-anchor="middle" letter-spacing="1">© CLEANPRO COMMERCIAL CLEANING EQUIPMENT — SC-W28</text>
</svg>