<svg xmlns="http://www.w3.org/2000/svg" viewBox="0 0 800 600" width="800" height="600">
<defs>
  <linearGradient id="navy" x1="0" y1="0" x2="0" y2="1" gradientUnits="objectBoundingBox">
    <stop offset="0%" stop-color="#243547"/><stop offset="100%" stop-color="#1a2a3a"/>
  </linearGradient>
  <linearGradient id="gold" x1="0" y1="0" x2="1" y2="0" gradientUnits="objectBoundingBox">
    <stop offset="0%" stop-color="#c9a84c"/><stop offset="100%" stop-color="#f0d98a"/>
  </linearGradient>
  <linearGradient id="softbg" x1="0" y1="0" x2="0" y2="1" gradientUnits="objectBoundingBox">
    <stop offset="0%" stop-color="#f5f7fa"/><stop offset="100%" stop-color="#e8eef5"/>
  </linearGradient>
  <filter id="dropshadow">
    <feDropShadow dx="0" dy="6" stdDeviation="8" flood-color="rgba(26,42,58,0.18)"/>
  </filter>
</defs>
<rect width="800" height="600" fill="url(#softbg)"/>
<rect x="0" y="435" width="800" height="165" fill="#e8eef5"/>
<line x1="0" y1="435" x2="800" y2="435" stroke="#dce4ed" stroke-width="2"/>
<line x1="0" y1="455" x2="800" y2="455" stroke="rgba(26,42,58,0.04)" stroke-width="1"/><line x1="0" y1="485" x2="800" y2="485" stroke="rgba(26,42,58,0.04)" stroke-width="1"/><line x1="0" y1="515" x2="800" y2="515" stroke="rgba(26,42,58,0.04)" stroke-width="1"/><line x1="0" y1="545" x2="800" y2="545" stroke="rgba(26,42,58,0.04)" stroke-width="1"/><line x1="0" y1="575" x2="800" y2="575" stroke="rgba(26,42,58,0.04)" stroke-width="1"/><line x1="0" y1="605" x2="800" y2="605" stroke="rgba(26,42,58,0.04)" stroke-width="1"/><line x1="0" y1="435" x2="0" y2="600" stroke="rgba(26,42,58,0.04)" stroke-width="1"/><line x1="80" y1="435" x2="80" y2="600" stroke="rgba(26,42,58,0.04)" stroke-width="1"/><line x1="160" y1="435" x2="160" y2="600" stroke="rgba(26,42,58,0.04)" stroke-width="1"/><line x1="240" y1="435" x2="240" y2="600" stroke="rgba(26,42,58,0.04)" stroke-width="1"/><line x1="320" y1="435" x2="320" y2="600" stroke="rgba(26,42,58,0.04)" stroke-width="1"/><line x1="400" y1="435" x2="400" y2="600" stroke="rgba(26,42,58,0.04)" stroke-width="1"/><line x1="480" y1="435" x2="480" y2="600" stroke="rgba(26,42,58,0.04)" stroke-width="1"/><line x1="560" y1="435" x2="560" y2="600" stroke="rgba(26,42,58,0.04)" stroke-width="1"/><line x1="640" y1="435" x2="640" y2="600" stroke="rgba(26,42,58,0.04)" stroke-width="1"/><line x1="720" y1="435" x2="720" y2="600" stroke="rgba(26,42,58,0.04)" stroke-width="1"/><line x1="800" y1="435" x2="800" y2="600" stroke="rgba(26,42,58,0.04)" stroke-width="1"/>
<ellipse cx="400" cy="441" rx="230" ry="12" fill="rgba(26,42,58,0.11)"/>
<!-- main body -->
<rect x="150" y="195" width="500" height="245" rx="14" fill="url(#navy)" filter="url(#dropshadow)"/>
<rect x="150" y="195" width="500" height="7" rx="2" fill="url(#gold)"/>
<!-- operator cab -->
<rect x="210" y="105" width="210" height="108" rx="10" fill="#243547"/>
<rect x="210" y="98" width="210" height="9" rx="4" fill="url(#gold)"/>
<!-- windshield -->
<rect x="228" y="115" width="174" height="74" rx="5" fill="rgba(120,185,240,0.15)" stroke="rgba(120,185,240,0.35)" stroke-width="1.5"/>
<line x1="245" y1="119" x2="258" y2="185" stroke="rgba(255,255,255,0.17)" stroke-width="2"/>
<!-- seat -->
<rect x="270" y="158" width="100" height="30" rx="6" fill="#1a2a3a"/>
<rect x="278" y="152" width="84" height="14" rx="4" fill="#1a2a3a"/>
<!-- hopper (waste bin) right top -->
<rect x="430" y="118" width="182" height="130" rx="8" fill="#243547" stroke="rgba(201,168,76,0.32)" stroke-width="1.5"/>
<rect x="430" y="118" width="182" height="7" rx="0" fill="url(#gold)"/>
<text x="521" y="178" font-family="Arial,sans-serif" font-size="10" fill="rgba(201,168,76,0.45)" text-anchor="middle" letter-spacing="1">HOPPER</text>
<text x="521" y="200" font-family="Arial,sans-serif" font-size="22" font-weight="900" fill="rgba(201,168,76,0.32)" text-anchor="middle">200L</text>
<!-- left control panel -->
<rect x="160" y="213" width="86" height="175" rx="4" fill="rgba(0,0,0,0.13)"/>
<!-- HEPA badge -->
<rect x="170" y="223" width="66" height="56" rx="3" fill="rgba(201,168,76,0.08)" stroke="rgba(201,168,76,0.24)" stroke-width="1"/>
<text x="203" y="243" font-family="Arial,sans-serif" font-size="7" fill="rgba(201,168,76,0.55)" text-anchor="middle" letter-spacing="1">HEPA</text>
<text x="203" y="261" font-family="Arial,sans-serif" font-size="16" font-weight="900" fill="#c9a84c" text-anchor="middle">H13</text>
<text x="203" y="274" font-family="Arial,sans-serif" font-size="7" fill="rgba(255,255,255,0.28)" text-anchor="middle">FILTER</text>
<!-- controls -->
<circle cx="186" cy="308" r="9" fill="#c9a84c" opacity="0.9"/>
<circle cx="214" cy="308" r="9" fill="#22c55e" opacity="0.88"/>
<rect x="170" y="330" width="66" height="4" rx="2" fill="rgba(201,168,76,0.4)"/>
<!-- center vent panel -->
<rect x="258" y="215" width="170" height="110" rx="4" fill="rgba(255,255,255,0.04)" stroke="rgba(201,168,76,0.12)" stroke-width="1"/>
<rect x="268" y="226" width="150" height="4" rx="1" fill="rgba(255,255,255,0.08)"/>
<rect x="268" y="236" width="150" height="4" rx="1" fill="rgba(255,255,255,0.08)"/>
<rect x="268" y="246" width="150" height="4" rx="1" fill="rgba(255,255,255,0.08)"/>
<rect x="268" y="256" width="130" height="4" rx="1" fill="rgba(255,255,255,0.08)"/>
<rect x="268" y="266" width="140" height="4" rx="1" fill="rgba(255,255,255,0.08)"/>
<rect x="268" y="276" width="120" height="4" rx="1" fill="rgba(255,255,255,0.08)"/>
<!-- brand badge -->

<rect x="330" y="340" width="140" height="36" rx="3"
  fill="rgba(201,168,76,0.1)" stroke="rgba(201,168,76,0.45)" stroke-width="1.5"/>
<text x="400" y="362" font-family="Arial,sans-serif" font-size="11"
  font-weight="900" fill="#c9a84c" text-anchor="middle" letter-spacing="2">CLEANPRO</text>
<text x="400" y="374" font-family="Arial,sans-serif" font-size="8"
  fill="rgba(201,168,76,0.55)" text-anchor="middle" letter-spacing="1">SW-R90</text>
<!-- right details panel -->
<rect x="440" y="260" width="190" height="140" rx="4" fill="rgba(0,0,0,0.09)"/>
<rect x="452" y="272" width="70" height="4" rx="1" fill="rgba(255,255,255,0.08)"/>
<rect x="452" y="282" width="70" height="4" rx="1" fill="rgba(255,255,255,0.08)"/>
<rect x="452" y="292" width="56" height="4" rx="1" fill="rgba(255,255,255,0.08)"/>
<!-- side brushes -->

<circle cx="165" cy="452" r="36" fill="#1a2a3a" stroke="#c9a84c" stroke-width="1.5" opacity="0.85"/>
<line x1="165" y1="452" x2="195" y2="452" stroke="rgba(201,168,76,0.5)" stroke-width="3"/><line x1="165" y1="452" x2="191" y2="467" stroke="rgba(201,168,76,0.5)" stroke-width="3"/><line x1="165" y1="452" x2="180" y2="478" stroke="rgba(201,168,76,0.5)" stroke-width="3"/><line x1="165" y1="452" x2="165" y2="482" stroke="rgba(201,168,76,0.5)" stroke-width="3"/><line x1="165" y1="452" x2="150" y2="478" stroke="rgba(201,168,76,0.5)" stroke-width="3"/><line x1="165" y1="452" x2="139" y2="467" stroke="rgba(201,168,76,0.5)" stroke-width="3"/><line x1="165" y1="452" x2="135" y2="452" stroke="rgba(201,168,76,0.5)" stroke-width="3"/><line x1="165" y1="452" x2="139" y2="437" stroke="rgba(201,168,76,0.5)" stroke-width="3"/><line x1="165" y1="452" x2="150" y2="426" stroke="rgba(201,168,76,0.5)" stroke-width="3"/><line x1="165" y1="452" x2="165" y2="422" stroke="rgba(201,168,76,0.5)" stroke-width="3"/><line x1="165" y1="452" x2="180" y2="426" stroke="rgba(201,168,76,0.5)" stroke-width="3"/><line x1="165" y1="452" x2="191" y2="437" stroke="rgba(201,168,76,0.5)" stroke-width="3"/>
<circle cx="165" cy="452" r="8" fill="#c9a84c"/>

<circle cx="635" cy="452" r="36" fill="#1a2a3a" stroke="#c9a84c" stroke-width="1.5" opacity="0.85"/>
<line x1="635" y1="452" x2="665" y2="452" stroke="rgba(201,168,76,0.5)" stroke-width="3"/><line x1="635" y1="452" x2="661" y2="467" stroke="rgba(201,168,76,0.5)" stroke-width="3"/><line x1="635" y1="452" x2="650" y2="478" stroke="rgba(201,168,76,0.5)" stroke-width="3"/><line x1="635" y1="452" x2="635" y2="482" stroke="rgba(201,168,76,0.5)" stroke-width="3"/><line x1="635" y1="452" x2="620" y2="478" stroke="rgba(201,168,76,0.5)" stroke-width="3"/><line x1="635" y1="452" x2="609" y2="467" stroke="rgba(201,168,76,0.5)" stroke-width="3"/><line x1="635" y1="452" x2="605" y2="452" stroke="rgba(201,168,76,0.5)" stroke-width="3"/><line x1="635" y1="452" x2="609" y2="437" stroke="rgba(201,168,76,0.5)" stroke-width="3"/><line x1="635" y1="452" x2="620" y2="426" stroke="rgba(201,168,76,0.5)" stroke-width="3"/><line x1="635" y1="452" x2="635" y2="422" stroke="rgba(201,168,76,0.5)" stroke-width="3"/><line x1="635" y1="452" x2="650" y2="426" stroke="rgba(201,168,76,0.5)" stroke-width="3"/><line x1="635" y1="452" x2="661" y2="437" stroke="rgba(201,168,76,0.5)" stroke-width="3"/>
<circle cx="635" cy="452" r="8" fill="#c9a84c"/>
<!-- main brush bar -->
<rect x="205" y="450" width="390" height="12" rx="4" fill="#243547" stroke="#c9a84c" stroke-width="1.5"/>
<line x1="210" y1="455" x2="210" y2="465" stroke="rgba(201,168,76,0.55)" stroke-width="2.5"/><line x1="226" y1="455" x2="226" y2="465" stroke="rgba(201,168,76,0.55)" stroke-width="2.5"/><line x1="243" y1="455" x2="243" y2="465" stroke="rgba(201,168,76,0.55)" stroke-width="2.5"/><line x1="259" y1="455" x2="259" y2="465" stroke="rgba(201,168,76,0.55)" stroke-width="2.5"/><line x1="276" y1="455" x2="276" y2="465" stroke="rgba(201,168,76,0.55)" stroke-width="2.5"/><line x1="293" y1="455" x2="293" y2="465" stroke="rgba(201,168,76,0.55)" stroke-width="2.5"/><line x1="309" y1="455" x2="309" y2="465" stroke="rgba(201,168,76,0.55)" stroke-width="2.5"/><line x1="326" y1="455" x2="326" y2="465" stroke="rgba(201,168,76,0.55)" stroke-width="2.5"/><line x1="342" y1="455" x2="342" y2="465" stroke="rgba(201,168,76,0.55)" stroke-width="2.5"/><line x1="359" y1="455" x2="359" y2="465" stroke="rgba(201,168,76,0.55)" stroke-width="2.5"/><line x1="376" y1="455" x2="376" y2="465" stroke="rgba(201,168,76,0.55)" stroke-width="2.5"/><line x1="392" y1="455" x2="392" y2="465" stroke="rgba(201,168,76,0.55)" stroke-width="2.5"/><line x1="409" y1="455" x2="409" y2="465" stroke="rgba(201,168,76,0.55)" stroke-width="2.5"/><line x1="425" y1="455" x2="425" y2="465" stroke="rgba(201,168,76,0.55)" stroke-width="2.5"/><line x1="442" y1="455" x2="442" y2="465" stroke="rgba(201,168,76,0.55)" stroke-width="2.5"/><line x1="459" y1="455" x2="459" y2="465" stroke="rgba(201,168,76,0.55)" stroke-width="2.5"/><line x1="475" y1="455" x2="475" y2="465" stroke="rgba(201,168,76,0.55)" stroke-width="2.5"/><line x1="492" y1="455" x2="492" y2="465" stroke="rgba(201,168,76,0.55)" stroke-width="2.5"/><line x1="508" y1="455" x2="508" y2="465" stroke="rgba(201,168,76,0.55)" stroke-width="2.5"/><line x1="525" y1="455" x2="525" y2="465" stroke="rgba(201,168,76,0.55)" stroke-width="2.5"/><line x1="542" y1="455" x2="542" y2="465" stroke="rgba(201,168,76,0.55)" stroke-width="2.5"/><line x1="558" y1="455" x2="558" y2="465" stroke="rgba(201,168,76,0.55)" stroke-width="2.5"/><line x1="575" y1="455" x2="575" y2="465" stroke="rgba(201,168,76,0.55)" stroke-width="2.5"/><line x1="592" y1="455" x2="592" y2="465" stroke="rgba(201,168,76,0.55)" stroke-width="2.5"/>
<!-- drive wheels -->

<circle cx="258" cy="425" r="32" fill="#1a2a3a" stroke="#c9a84c" stroke-width="2.5"/>
<circle cx="258" cy="425" r="20" fill="#243547"/>
<circle cx="258" cy="425" r="5" fill="#c9a84c"/>
<line x1="258" y1="425" x2="278" y2="425" stroke="rgba(201,168,76,0.5)" stroke-width="2"/><line x1="258" y1="425" x2="238" y2="425" stroke="rgba(201,168,76,0.5)" stroke-width="2"/><line x1="258" y1="425" x2="258" y2="445" stroke="rgba(201,168,76,0.5)" stroke-width="2"/><line x1="258" y1="425" x2="258" y2="405" stroke="rgba(201,168,76,0.5)" stroke-width="2"/><line x1="258" y1="425" x2="272" y2="439" stroke="rgba(201,168,76,0.5)" stroke-width="2"/><line x1="258" y1="425" x2="244" y2="411" stroke="rgba(201,168,76,0.5)" stroke-width="2"/><line x1="258" y1="425" x2="244" y2="439" stroke="rgba(201,168,76,0.5)" stroke-width="2"/><line x1="258" y1="425" x2="272" y2="411" stroke="rgba(201,168,76,0.5)" stroke-width="2"/>

<circle cx="542" cy="425" r="32" fill="#1a2a3a" stroke="#c9a84c" stroke-width="2.5"/>
<circle cx="542" cy="425" r="20" fill="#243547"/>
<circle cx="542" cy="425" r="5" fill="#c9a84c"/>
<line x1="542" y1="425" x2="562" y2="425" stroke="rgba(201,168,76,0.5)" stroke-width="2"/><line x1="542" y1="425" x2="522" y2="425" stroke="rgba(201,168,76,0.5)" stroke-width="2"/><line x1="542" y1="425" x2="542" y2="445" stroke="rgba(201,168,76,0.5)" stroke-width="2"/><line x1="542" y1="425" x2="542" y2="405" stroke="rgba(201,168,76,0.5)" stroke-width="2"/><line x1="542" y1="425" x2="556" y2="439" stroke="rgba(201,168,76,0.5)" stroke-width="2"/><line x1="542" y1="425" x2="528" y2="411" stroke="rgba(201,168,76,0.5)" stroke-width="2"/><line x1="542" y1="425" x2="528" y2="439" stroke="rgba(201,168,76,0.5)" stroke-width="2"/><line x1="542" y1="425" x2="556" y2="411" stroke="rgba(201,168,76,0.5)" stroke-width="2"/>
<!-- dust cloud suggestion -->
<ellipse cx="155" cy="457" rx="28" ry="6" fill="rgba(26,42,58,0.07)"/>
<ellipse cx="645" cy="457" rx="28" ry="6" fill="rgba(26,42,58,0.07)"/>
<text x="400" y="590" font-family="Arial,sans-serif" font-size="9" fill="rgba(26,42,58,0.18)" text-anchor="middle" letter-spacing="1">© CLEANPRO COMMERCIAL CLEANING EQUIPMENT — SW-R90</text>
</svg>