<svg xmlns="http://www.w3.org/2000/svg" viewBox="0 0 800 600" width="800" height="600">
<defs>
  <linearGradient id="navy" x1="0" y1="0" x2="0" y2="1" gradientUnits="objectBoundingBox">
    <stop offset="0%" stop-color="#243547"/><stop offset="100%" stop-color="#1a2a3a"/>
  </linearGradient>
  <linearGradient id="gold" x1="0" y1="0" x2="1" y2="0" gradientUnits="objectBoundingBox">
    <stop offset="0%" stop-color="#c9a84c"/><stop offset="100%" stop-color="#f0d98a"/>
  </linearGradient>
  <linearGradient id="softbg" x1="0" y1="0" x2="0" y2="1" gradientUnits="objectBoundingBox">
    <stop offset="0%" stop-color="#f5f7fa"/><stop offset="100%" stop-color="#e8eef5"/>
  </linearGradient>
  <filter id="dropshadow">
    <feDropShadow dx="0" dy="6" stdDeviation="8" flood-color="rgba(26,42,58,0.18)"/>
  </filter>
</defs>
<rect width="800" height="600" fill="url(#softbg)"/>
<rect x="0" y="460" width="800" height="140" fill="#e8eef5"/>
<line x1="0" y1="460" x2="800" y2="460" stroke="#dce4ed" stroke-width="2"/>
<line x1="0" y1="480" x2="800" y2="480" stroke="rgba(26,42,58,0.04)" stroke-width="1"/><line x1="0" y1="510" x2="800" y2="510" stroke="rgba(26,42,58,0.04)" stroke-width="1"/><line x1="0" y1="540" x2="800" y2="540" stroke="rgba(26,42,58,0.04)" stroke-width="1"/><line x1="0" y1="570" x2="800" y2="570" stroke="rgba(26,42,58,0.04)" stroke-width="1"/><line x1="0" y1="600" x2="800" y2="600" stroke="rgba(26,42,58,0.04)" stroke-width="1"/><line x1="0" y1="630" x2="800" y2="630" stroke="rgba(26,42,58,0.04)" stroke-width="1"/><line x1="0" y1="460" x2="0" y2="600" stroke="rgba(26,42,58,0.04)" stroke-width="1"/><line x1="80" y1="460" x2="80" y2="600" stroke="rgba(26,42,58,0.04)" stroke-width="1"/><line x1="160" y1="460" x2="160" y2="600" stroke="rgba(26,42,58,0.04)" stroke-width="1"/><line x1="240" y1="460" x2="240" y2="600" stroke="rgba(26,42,58,0.04)" stroke-width="1"/><line x1="320" y1="460" x2="320" y2="600" stroke="rgba(26,42,58,0.04)" stroke-width="1"/><line x1="400" y1="460" x2="400" y2="600" stroke="rgba(26,42,58,0.04)" stroke-width="1"/><line x1="480" y1="460" x2="480" y2="600" stroke="rgba(26,42,58,0.04)" stroke-width="1"/><line x1="560" y1="460" x2="560" y2="600" stroke="rgba(26,42,58,0.04)" stroke-width="1"/><line x1="640" y1="460" x2="640" y2="600" stroke="rgba(26,42,58,0.04)" stroke-width="1"/><line x1="720" y1="460" x2="720" y2="600" stroke="rgba(26,42,58,0.04)" stroke-width="1"/><line x1="800" y1="460" x2="800" y2="600" stroke="rgba(26,42,58,0.04)" stroke-width="1"/>
<ellipse cx="400" cy="466" rx="145" ry="10" fill="rgba(26,42,58,0.09)"/>
<!-- drum top cap -->
<ellipse cx="400" cy="185" rx="145" ry="30" fill="#243547" stroke="#c9a84c" stroke-width="2"/>
<!-- drum body -->
<rect x="255" y="185" width="290" height="270" fill="url(#navy)"/>
<!-- drum bottom cap -->
<ellipse cx="400" cy="455" rx="145" ry="24" fill="#1a2a3a" stroke="#c9a84c" stroke-width="2"/>
<!-- horizontal bands -->
<rect x="255" y="215" width="290" height="6" fill="rgba(201,168,76,0.58)"/>
<rect x="255" y="280" width="290" height="4" fill="rgba(255,255,255,0.10)"/>
<rect x="255" y="360" width="290" height="4" fill="rgba(255,255,255,0.10)"/>
<rect x="255" y="420" width="290" height="4" fill="rgba(201,168,76,0.38)"/>
<!-- motor head on top -->
<rect x="305" y="110" width="190" height="90" rx="8" fill="#243547" stroke="rgba(201,168,76,0.28)" stroke-width="1.5"/>
<rect x="305" y="110" width="190" height="7" rx="2" fill="url(#gold)"/>
<!-- vent slots top -->
<rect x="320" y="130" width="160" height="4" rx="1" fill="rgba(255,255,255,0.08)"/>
<rect x="320" y="140" width="160" height="4" rx="1" fill="rgba(255,255,255,0.08)"/>
<rect x="320" y="150" width="140" height="4" rx="1" fill="rgba(255,255,255,0.08)"/>
<rect x="320" y="160" width="148" height="4" rx="1" fill="rgba(255,255,255,0.08)"/>
<!-- on/off button -->
<circle cx="462" cy="148" r="22" fill="rgba(0,0,0,0.2)" stroke="rgba(201,168,76,0.32)" stroke-width="1.5"/>
<circle cx="462" cy="148" r="15" fill="#1a2a3a" stroke="#22c55e" stroke-width="2.5"/>
<line x1="462" y1="136" x2="462" y2="148" stroke="#22c55e" stroke-width="3"/>
<!-- indicator lights -->
<circle cx="322" cy="126" r="6" fill="#22c55e" opacity="0.9"/>
<circle cx="340" cy="126" r="6" fill="#c9a84c" opacity="0.75"/>
<!-- front panel -->
<rect x="300" y="230" width="200" height="155" rx="4" fill="rgba(255,255,255,0.04)" stroke="rgba(201,168,76,0.12)" stroke-width="1"/>
<!-- HEPA badge -->
<rect x="315" y="245" width="80" height="56" rx="3" fill="rgba(201,168,76,0.08)" stroke="rgba(201,168,76,0.24)" stroke-width="1"/>
<text x="355" y="265" font-family="Arial,sans-serif" font-size="7" fill="rgba(201,168,76,0.55)" text-anchor="middle" letter-spacing="1">HEPA</text>
<text x="355" y="282" font-family="Arial,sans-serif" font-size="16" font-weight="900" fill="#c9a84c" text-anchor="middle">H14</text>
<text x="355" y="296" font-family="Arial,sans-serif" font-size="7" fill="rgba(255,255,255,0.3)" text-anchor="middle">99.995%</text>
<!-- wet/dry badge -->
<rect x="408" y="245" width="76" height="24" rx="3" fill="rgba(100,180,255,0.14)" stroke="rgba(100,180,255,0.30)" stroke-width="1"/>
<text x="446" y="260" font-family="Arial,sans-serif" font-size="9" font-weight="700" fill="rgba(100,185,255,0.82)" text-anchor="middle">WET / DRY</text>
<!-- capacity -->
<text x="460" y="315" font-family="Arial,sans-serif" font-size="24" font-weight="900" fill="rgba(201,168,76,0.36)" text-anchor="middle">80L</text>
<!-- brand badge -->

<rect x="330" y="352" width="140" height="36" rx="3"
  fill="rgba(201,168,76,0.1)" stroke="rgba(201,168,76,0.45)" stroke-width="1.5"/>
<text x="400" y="374" font-family="Arial,sans-serif" font-size="11"
  font-weight="900" fill="#c9a84c" text-anchor="middle" letter-spacing="2">CLEANPRO</text>
<text x="400" y="386" font-family="Arial,sans-serif" font-size="8"
  fill="rgba(201,168,76,0.55)" text-anchor="middle" letter-spacing="1">VAC-BACKPACK</text>
<!-- suction hose port -->
<rect x="255" y="308" width="44" height="32" rx="4" fill="#243547" stroke="rgba(201,168,76,0.35)" stroke-width="1.5"/>
<circle cx="277" cy="324" r="11" fill="#1a2a3a" stroke="#c9a84c" stroke-width="1.5"/>
<!-- hose curve -->
<path d="M 255 324 C 190 324 170 388 148 400 C 126 412 108 400 88 410"
  stroke="#c9a84c" stroke-width="8" fill="none" stroke-linecap="round" opacity="0.48"/>
<path d="M 255 324 C 190 324 170 388 148 400 C 126 412 108 400 88 410"
  stroke="rgba(255,255,255,0.14)" stroke-width="4" fill="none"
  stroke-dasharray="5 9" stroke-linecap="round"/>
<!-- floor nozzle -->
<rect x="56" y="406" width="72" height="18" rx="6" fill="#243547" stroke="#c9a84c" stroke-width="1.5"/>
<!-- casters -->

<circle cx="320" cy="458" r="16" fill="#1a2a3a" stroke="#c9a84c" stroke-width="2.5"/>
<circle cx="320" cy="458" r="9" fill="#243547"/>
<circle cx="320" cy="458" r="3" fill="#c9a84c"/>
<line x1="320" y1="458" x2="329" y2="458" stroke="rgba(201,168,76,0.5)" stroke-width="2"/><line x1="320" y1="458" x2="311" y2="458" stroke="rgba(201,168,76,0.5)" stroke-width="2"/><line x1="320" y1="458" x2="320" y2="467" stroke="rgba(201,168,76,0.5)" stroke-width="2"/><line x1="320" y1="458" x2="320" y2="449" stroke="rgba(201,168,76,0.5)" stroke-width="2"/><line x1="320" y1="458" x2="326" y2="464" stroke="rgba(201,168,76,0.5)" stroke-width="2"/><line x1="320" y1="458" x2="314" y2="452" stroke="rgba(201,168,76,0.5)" stroke-width="2"/><line x1="320" y1="458" x2="314" y2="464" stroke="rgba(201,168,76,0.5)" stroke-width="2"/><line x1="320" y1="458" x2="326" y2="452" stroke="rgba(201,168,76,0.5)" stroke-width="2"/>

<circle cx="480" cy="458" r="16" fill="#1a2a3a" stroke="#c9a84c" stroke-width="2.5"/>
<circle cx="480" cy="458" r="9" fill="#243547"/>
<circle cx="480" cy="458" r="3" fill="#c9a84c"/>
<line x1="480" y1="458" x2="489" y2="458" stroke="rgba(201,168,76,0.5)" stroke-width="2"/><line x1="480" y1="458" x2="471" y2="458" stroke="rgba(201,168,76,0.5)" stroke-width="2"/><line x1="480" y1="458" x2="480" y2="467" stroke="rgba(201,168,76,0.5)" stroke-width="2"/><line x1="480" y1="458" x2="480" y2="449" stroke="rgba(201,168,76,0.5)" stroke-width="2"/><line x1="480" y1="458" x2="486" y2="464" stroke="rgba(201,168,76,0.5)" stroke-width="2"/><line x1="480" y1="458" x2="474" y2="452" stroke="rgba(201,168,76,0.5)" stroke-width="2"/><line x1="480" y1="458" x2="474" y2="464" stroke="rgba(201,168,76,0.5)" stroke-width="2"/><line x1="480" y1="458" x2="486" y2="452" stroke="rgba(201,168,76,0.5)" stroke-width="2"/>

<circle cx="360" cy="464" r="10" fill="#1a2a3a" stroke="#c9a84c" stroke-width="2.5"/>
<circle cx="360" cy="464" r="5" fill="#243547"/>
<circle cx="360" cy="464" r="2" fill="#c9a84c"/>
<line x1="360" y1="464" x2="365" y2="464" stroke="rgba(201,168,76,0.5)" stroke-width="2"/><line x1="360" y1="464" x2="355" y2="464" stroke="rgba(201,168,76,0.5)" stroke-width="2"/><line x1="360" y1="464" x2="360" y2="469" stroke="rgba(201,168,76,0.5)" stroke-width="2"/><line x1="360" y1="464" x2="360" y2="459" stroke="rgba(201,168,76,0.5)" stroke-width="2"/><line x1="360" y1="464" x2="363" y2="467" stroke="rgba(201,168,76,0.5)" stroke-width="2"/><line x1="360" y1="464" x2="357" y2="461" stroke="rgba(201,168,76,0.5)" stroke-width="2"/><line x1="360" y1="464" x2="357" y2="467" stroke="rgba(201,168,76,0.5)" stroke-width="2"/><line x1="360" y1="464" x2="363" y2="461" stroke="rgba(201,168,76,0.5)" stroke-width="2"/>

<circle cx="440" cy="464" r="10" fill="#1a2a3a" stroke="#c9a84c" stroke-width="2.5"/>
<circle cx="440" cy="464" r="5" fill="#243547"/>
<circle cx="440" cy="464" r="2" fill="#c9a84c"/>
<line x1="440" y1="464" x2="445" y2="464" stroke="rgba(201,168,76,0.5)" stroke-width="2"/><line x1="440" y1="464" x2="435" y2="464" stroke="rgba(201,168,76,0.5)" stroke-width="2"/><line x1="440" y1="464" x2="440" y2="469" stroke="rgba(201,168,76,0.5)" stroke-width="2"/><line x1="440" y1="464" x2="440" y2="459" stroke="rgba(201,168,76,0.5)" stroke-width="2"/><line x1="440" y1="464" x2="443" y2="467" stroke="rgba(201,168,76,0.5)" stroke-width="2"/><line x1="440" y1="464" x2="437" y2="461" stroke="rgba(201,168,76,0.5)" stroke-width="2"/><line x1="440" y1="464" x2="437" y2="467" stroke="rgba(201,168,76,0.5)" stroke-width="2"/><line x1="440" y1="464" x2="443" y2="461" stroke="rgba(201,168,76,0.5)" stroke-width="2"/>
<text x="400" y="590" font-family="Arial,sans-serif" font-size="9" fill="rgba(26,42,58,0.18)" text-anchor="middle" letter-spacing="1">© CLEANPRO COMMERCIAL CLEANING EQUIPMENT — VAC-BACKPACK</text>
</svg>