<svg xmlns="http://www.w3.org/2000/svg" viewBox="0 0 800 600" width="800" height="600">
<defs>
  <linearGradient id="bg" x1="0" y1="0" x2="0" y2="1" gradientUnits="objectBoundingBox">
    <stop offset="0%" stop-color="#f5f7fa"/><stop offset="100%" stop-color="#e8ecf2"/>
  </linearGradient>
  <linearGradient id="navy" x1="0" y1="0" x2="0" y2="1" gradientUnits="objectBoundingBox">
    <stop offset="0%" stop-color="#243547"/><stop offset="100%" stop-color="#1a2a3a"/>
  </linearGradient>
</defs>
<rect width="800" height="600" fill="url(#bg)"/>
<rect x="0" y="0" width="800" height="4" fill="#00AEEF"/><rect x="0" y="460" width="800" height="140" fill="#e8ecf2"/><line x1="0" y1="460" x2="800" y2="460" stroke="#dce4ed" stroke-width="2"/><line x1="0" y1="480" x2="800" y2="480" stroke="rgba(26,42,58,0.04)" stroke-width="1"/><line x1="0" y1="510" x2="800" y2="510" stroke="rgba(26,42,58,0.04)" stroke-width="1"/><line x1="0" y1="540" x2="800" y2="540" stroke="rgba(26,42,58,0.04)" stroke-width="1"/><line x1="0" y1="570" x2="800" y2="570" stroke="rgba(26,42,58,0.04)" stroke-width="1"/><line x1="0" y1="600" x2="800" y2="600" stroke="rgba(26,42,58,0.04)" stroke-width="1"/><line x1="0" y1="630" x2="800" y2="630" stroke="rgba(26,42,58,0.04)" stroke-width="1"/><line x1="0" y1="460" x2="0" y2="600" stroke="rgba(26,42,58,0.04)" stroke-width="1"/><line x1="80" y1="460" x2="80" y2="600" stroke="rgba(26,42,58,0.04)" stroke-width="1"/><line x1="160" y1="460" x2="160" y2="600" stroke="rgba(26,42,58,0.04)" stroke-width="1"/><line x1="240" y1="460" x2="240" y2="600" stroke="rgba(26,42,58,0.04)" stroke-width="1"/><line x1="320" y1="460" x2="320" y2="600" stroke="rgba(26,42,58,0.04)" stroke-width="1"/><line x1="400" y1="460" x2="400" y2="600" stroke="rgba(26,42,58,0.04)" stroke-width="1"/><line x1="480" y1="460" x2="480" y2="600" stroke="rgba(26,42,58,0.04)" stroke-width="1"/><line x1="560" y1="460" x2="560" y2="600" stroke="rgba(26,42,58,0.04)" stroke-width="1"/><line x1="640" y1="460" x2="640" y2="600" stroke="rgba(26,42,58,0.04)" stroke-width="1"/><line x1="720" y1="460" x2="720" y2="600" stroke="rgba(26,42,58,0.04)" stroke-width="1"/><line x1="800" y1="460" x2="800" y2="600" stroke="rgba(26,42,58,0.04)" stroke-width="1"/><ellipse cx="400" cy="466" rx="142" ry="10" fill="rgba(26,42,58,0.10)"/>
<ellipse cx="400" cy="185" rx="145" ry="30" fill="#243547" stroke="#00AEEF" stroke-width="2"/>
<rect x="255" y="185" width="290" height="270" fill="url(#navy)"/>
<ellipse cx="400" cy="455" rx="145" ry="24" fill="#1a2a3a" stroke="#00AEEF" stroke-width="2"/>
<rect x="255" y="215" width="290" height="6" fill="#00AEEF" opacity="0.7"/>
<rect x="255" y="280" width="290" height="4" fill="rgba(255,255,255,0.10)"/>
<rect x="255" y="360" width="290" height="4" fill="rgba(255,255,255,0.10)"/>
<rect x="255" y="420" width="290" height="4" fill="#00AEEF" opacity="0.45"/>
<!-- motor head -->
<rect x="308" y="110" width="184" height="90" rx="8" fill="#243547" stroke="rgba(0,174,239,0.3)" stroke-width="1.5"/>
<rect x="308" y="110" width="184" height="7" fill="#00AEEF"/>
<rect x="322" y="130" width="156" height="4" rx="1" fill="rgba(255,255,255,0.08)"/><rect x="322" y="142" width="156" height="4" rx="1" fill="rgba(255,255,255,0.08)"/><rect x="322" y="154" width="156" height="4" rx="1" fill="rgba(255,255,255,0.08)"/><rect x="322" y="166" width="156" height="4" rx="1" fill="rgba(255,255,255,0.08)"/><rect x="322" y="178" width="156" height="4" rx="1" fill="rgba(255,255,255,0.08)"/>
<!-- on/off -->
<circle cx="462" cy="148" r="22" fill="rgba(0,0,0,0.2)" stroke="#00AEEF" stroke-width="1.5"/>
<circle cx="462" cy="148" r="15" fill="#1a2a3a" stroke="#22c55e" stroke-width="2.5"/>
<line x1="462" y1="136" x2="462" y2="148" stroke="#22c55e" stroke-width="3"/>
<!-- HEPA badge -->
<rect x="318" y="245" width="78" height="56" rx="3" fill="rgba(0,174,239,0.08)" stroke="#00AEEF" stroke-width="1"/>
<text x="357" y="264" font-family="Arial,sans-serif" font-size="7" fill="#00AEEF" text-anchor="middle" letter-spacing="1">HEPA</text>
<text x="357" y="281" font-family="Arial,sans-serif" font-size="16" font-weight="900" fill="#00AEEF" text-anchor="middle">H14</text>
<text x="357" y="296" font-family="Arial,sans-serif" font-size="7" fill="rgba(255,255,255,0.3)" text-anchor="middle">99.995%</text>
<rect x="340" y="358" width="120" height="28" rx="3" fill="rgba(0,174,239,0.10)" stroke="#00AEEF" stroke-width="1"/><text x="400" y="377" font-family="Arial,sans-serif" font-size="11" font-weight="700" fill="#00AEEF" text-anchor="middle" letter-spacing="1">ELVONIS WV-EX</text>
<!-- hose -->
<rect x="255" y="310" width="42" height="30" rx="4" fill="#243547" stroke="#00AEEF" stroke-width="1.5"/>
<circle cx="276" cy="325" r="11" fill="#1a2a3a" stroke="#00AEEF" stroke-width="1.5"/>
<path d="M 255 325 C 190 325 170 388 148 400 C 126 412 108 400 88 410" stroke="#00AEEF" stroke-width="7" fill="none" stroke-linecap="round" opacity="0.5"/>
<path d="M 255 325 C 190 325 170 388 148 400 C 126 412 108 400 88 410" stroke="rgba(255,255,255,0.15)" stroke-width="3.5" fill="none" stroke-dasharray="5 9" stroke-linecap="round"/>
<rect x="58" y="406" width="70" height="17" rx="5" fill="#243547" stroke="#00AEEF" stroke-width="1.5"/>
<circle cx="322" cy="458" r="15" fill="#1a2a3a" stroke="#00AEEF" stroke-width="2"/><circle cx="322" cy="458" r="8" fill="#243547"/><circle cx="322" cy="458" r="3" fill="#00AEEF"/><line x1="322" y1="458" x2="330" y2="458" stroke="#00AEEF" stroke-width="1.8" opacity="0.6"/><line x1="322" y1="458" x2="322" y2="466" stroke="#00AEEF" stroke-width="1.8" opacity="0.6"/><line x1="322" y1="458" x2="327" y2="463" stroke="#00AEEF" stroke-width="1.8" opacity="0.6"/><line x1="322" y1="458" x2="317" y2="463" stroke="#00AEEF" stroke-width="1.8" opacity="0.6"/><line x1="322" y1="458" x2="314" y2="458" stroke="#00AEEF" stroke-width="1.8" opacity="0.6"/><line x1="322" y1="458" x2="322" y2="450" stroke="#00AEEF" stroke-width="1.8" opacity="0.6"/><line x1="322" y1="458" x2="317" y2="453" stroke="#00AEEF" stroke-width="1.8" opacity="0.6"/><line x1="322" y1="458" x2="327" y2="453" stroke="#00AEEF" stroke-width="1.8" opacity="0.6"/><circle cx="478" cy="458" r="15" fill="#1a2a3a" stroke="#00AEEF" stroke-width="2"/><circle cx="478" cy="458" r="8" fill="#243547"/><circle cx="478" cy="458" r="3" fill="#00AEEF"/><line x1="478" y1="458" x2="486" y2="458" stroke="#00AEEF" stroke-width="1.8" opacity="0.6"/><line x1="478" y1="458" x2="478" y2="466" stroke="#00AEEF" stroke-width="1.8" opacity="0.6"/><line x1="478" y1="458" x2="483" y2="463" stroke="#00AEEF" stroke-width="1.8" opacity="0.6"/><line x1="478" y1="458" x2="473" y2="463" stroke="#00AEEF" stroke-width="1.8" opacity="0.6"/><line x1="478" y1="458" x2="470" y2="458" stroke="#00AEEF" stroke-width="1.8" opacity="0.6"/><line x1="478" y1="458" x2="478" y2="450" stroke="#00AEEF" stroke-width="1.8" opacity="0.6"/><line x1="478" y1="458" x2="473" y2="453" stroke="#00AEEF" stroke-width="1.8" opacity="0.6"/><line x1="478" y1="458" x2="483" y2="453" stroke="#00AEEF" stroke-width="1.8" opacity="0.6"/>
<text x="400" y="590" font-family="Arial,sans-serif" font-size="9" fill="rgba(26,42,58,0.2)" text-anchor="middle" letter-spacing="1">ELVONIS — WV-EX</text>
</svg>